<?xml version="1.0" encoding="utf-8"?>
<!-- Generator: Adobe Illustrator 24.1.3, SVG Export Plug-In . SVG Version: 6.00 Build 0)  -->
<svg version="1.1"
	 id="svg1128" inkscape:version="1.0.1 (c497b03c, 2020-09-10)" sodipodi:docname="ink_logo_ds_rgb.svg" xmlns:cc="http://creativecommons.org/ns#" xmlns:dc="http://purl.org/dc/elements/1.1/" xmlns:inkscape="http://www.inkscape.org/namespaces/inkscape" xmlns:rdf="http://www.w3.org/1999/02/22-rdf-syntax-ns#" xmlns:sodipodi="http://sodipodi.sourceforge.net/DTD/sodipodi-0.dtd" xmlns:svg="http://www.w3.org/2000/svg"
	 xmlns="http://www.w3.org/2000/svg" xmlns:xlink="http://www.w3.org/1999/xlink" x="0px" y="0px" viewBox="0 0 224.8 78.3"
	 style="enable-background:new 0 0 224.8 78.3;" xml:space="preserve">
<style type="text/css">
	.st0{fill:#4D4D4D;stroke:#4D4D4D;stroke-width:0.2919;stroke-linejoin:round;stroke-miterlimit:11.3386;}
	.st1{fill:#4D4D4D;stroke:#4D4D4D;stroke-width:0.2915;stroke-linejoin:round;stroke-miterlimit:11.3386;}
	.st2{fill:#37ABC8;}
	.st3{enable-background:new    ;}
	.st4{fill:#4D4D4D;}
</style>
<sodipodi:namedview  bordercolor="#666666" borderopacity="1" gridtolerance="10" guidetolerance="10" id="namedview858" inkscape:current-layer="svg1128" inkscape:cx="149.83438" inkscape:cy="52.203823" inkscape:pageopacity="0" inkscape:pageshadow="2" inkscape:window-height="690" inkscape:window-maximized="0" inkscape:window-width="1203" inkscape:window-x="0" inkscape:window-y="23" inkscape:zoom="1.9354703" objecttolerance="10" pagecolor="#ffffff" showgrid="false">
	</sodipodi:namedview>
<path id="path12-2-8-3" class="st0" d="M80.3,19.4c-5-5-10.3-6.5-23-7c-12.7-0.5-16.7-5.6-16.7-5.6s0.3,6.2,9.1,13.5
	c8.9,7.3,22.2,6.2,28.6,10.3S88,43.4,88,43.4S85.3,24.4,80.3,19.4z"/>
<path id="path12-5-4-5-9" class="st1" d="M82,19.5c4-5.8,9.1-8.2,21.6-10.9c12.5-2.7,15.8-8.5,15.8-8.5s0.8,6.2-6.7,14.9
	c-7.5,8.7-21.5,11-25.8,16.2C85.5,25.6,83.9,21.8,82,19.5z"/>
<g id="text912-8-9-9" transform="matrix(0.81749016,0,0,0.93127825,-7.7167728,-57.688366)">
	<path id="path1780" class="st2" d="M131.1,135.9c1.6,1,4.8,1.9,7.9,1.9c7.5,0,11-4.1,11-8.8c0-4.2-2.4-6.8-7.5-8.7
		c-3.9-1.5-5.6-2.6-5.6-4.8c0-1.7,1.4-3.5,4.8-3.5c2.7,0,4.8,0.8,5.8,1.4l1.3-4.3c-1.5-0.8-3.8-1.5-7-1.5c-6.4,0-10.4,3.6-10.4,8.4
		c0,4.2,3.1,6.8,7.9,8.5c3.7,1.3,5.2,2.6,5.2,4.9c0,2.4-1.9,4-5.3,4c-2.7,0-5.4-0.9-7.1-1.9L131.1,135.9z"/>
	<path id="path1782" class="st2" d="M171.3,124.6c0-4.6-1.9-8.9-8.7-8.9c-3.3,0-6.1,0.9-7.6,1.9l1,3.5c1.4-0.9,3.6-1.6,5.7-1.6
		c3.7,0,4.3,2.3,4.3,3.7v0.3c-7.8,0-12.5,2.7-12.5,8c0,3.2,2.4,6.3,6.6,6.3c2.8,0,5-1.2,6.2-2.8h0.1l0.4,2.3h4.8
		c-0.3-1.3-0.3-3.2-0.3-5.1V124.6z M166.1,129.9c0,0.4,0,0.8-0.1,1.2c-0.5,1.5-2,2.9-4.2,2.9c-1.7,0-3-1-3-3c0-3.2,3.6-4,7.4-3.9
		V129.9z"/>
	<path id="path1784" class="st2" d="M176.9,137.3h5.2v-12.5c0-0.6,0.1-1.2,0.3-1.8c0.5-1.4,1.9-3,3.9-3c2.5,0,3.6,2.1,3.6,5v12.2
		h5.2v-12.7c0-0.6,0.1-1.3,0.3-1.8c0.6-1.5,1.9-2.8,3.7-2.8c2.6,0,3.8,2.1,3.8,5.6v11.7h5.2v-12.4c0-6.8-3.6-9.1-7-9.1
		c-1.8,0-3.1,0.4-4.3,1.3c-1,0.6-1.8,1.5-2.6,2.6H194c-0.9-2.3-3.1-3.9-5.8-3.9c-3.6,0-5.5,1.9-6.5,3.6h-0.1l-0.3-3.1h-4.5
		c0.1,1.8,0.2,3.9,0.2,6.3L176.9,137.3z"/>
	<path id="path1786" class="st2" d="M213.7,145.8h5.3v-10.9h0.1c1.1,1.7,3.3,2.8,5.9,2.8c4.8,0,9.6-3.7,9.6-11.3
		c0-6.6-4-10.7-8.9-10.7c-3.2,0-5.7,1.3-7.2,3.7h-0.1l-0.3-3.2h-4.7c0.1,2,0.2,4.2,0.2,7V145.8z M219,125.2c0-0.4,0.1-0.9,0.2-1.3
		c0.6-2.3,2.6-3.9,4.8-3.9c3.4,0,5.2,3,5.2,6.8c0,4.2-2,7-5.4,7c-2.3,0-4.2-1.6-4.7-3.7c-0.1-0.5-0.1-1-0.1-1.5V125.2z"/>
	<path id="path1788" class="st2" d="M239,137.3h5.3v-30.8H239V137.3z"/>
	<path id="path1790" class="st2" d="M268.1,128.2c0.1-0.5,0.2-1.3,0.2-2.3c0-4.6-2.3-10.3-9.1-10.3c-6.8,0-10.3,5.5-10.3,11.4
		c0,6.5,4,10.7,10.9,10.7c3,0,5.5-0.6,7.4-1.3l-0.8-3.6c-1.6,0.6-3.4,1-5.8,1c-3.4,0-6.4-1.6-6.5-5.5L268.1,128.2z M254,124.5
		c0.2-2.2,1.6-5.2,4.9-5.2c3.6,0,4.4,3.2,4.4,5.2H254z"/>
	<path id="path1792" class="st2" d="M272.5,137.3h5.3v-11c0-0.6,0-1.1,0.1-1.6c0.5-2.4,2.3-4,4.8-4c0.6,0,1.1,0,1.6,0.1v-5
		c-0.4-0.1-0.7-0.1-1.3-0.1c-2.3,0-4.8,1.5-5.8,4.5h-0.1l-0.2-4h-4.6c0.1,1.9,0.2,3.9,0.2,6.8L272.5,137.3z"/>
</g>
<g class="st3">
	<path class="st4" d="M84.7,59.5c-0.1-2.5,2-4.4,4.4-4.4c2.4,0,4.4,1.9,4.4,4.4c0,2.4-1.9,4.4-4.4,4.4C86.6,63.9,84.7,62,84.7,59.5z
		"/>
</g>
<g id="text912-8-9-2" transform="matrix(0.81749016,0,0,0.93127825,-43.173015,-57.62594)">
	<path id="path1771" class="st2" d="M52.8,137.3c1.8,0.2,4.1,0.4,7.2,0.4c5.7,0,10.3-1.3,13.2-4c2.8-2.5,4.5-6.4,4.5-11.6
		c0-4.9-1.7-8.4-4.6-10.7c-2.7-2.3-6.4-3.4-11.9-3.4c-3.2,0-6.1,0.3-8.5,0.6L52.8,137.3z M58.1,112.4c0.8-0.2,1.9-0.3,3.6-0.3
		c6.7,0,10.4,3.7,10.4,10.1c0,7.4-4.1,11.3-11,11.2c-1.1,0-2.2,0-2.9-0.1V112.4z"/>
	<path id="path1773" class="st2" d="M100.1,128.3c0.1-0.5,0.2-1.3,0.2-2.3c0-4.6-2.3-10.3-9.1-10.3c-6.8,0-10.3,5.5-10.3,11.4
		c0,6.5,4,10.7,10.9,10.7c3,0,5.5-0.6,7.4-1.3l-0.8-3.6c-1.6,0.6-3.4,1-5.8,1c-3.4,0-6.4-1.6-6.5-5.5L100.1,128.3z M86,124.6
		c0.2-2.2,1.6-5.2,4.9-5.2c3.6,0,4.4,3.2,4.4,5.2H86z"/>
	<path id="path1775" class="st2" d="M122.4,128.3c0.1-0.5,0.2-1.3,0.2-2.3c0-4.6-2.3-10.3-9.1-10.3c-6.8,0-10.3,5.5-10.3,11.4
		c0,6.5,4,10.7,10.9,10.7c3,0,5.5-0.6,7.4-1.3l-0.8-3.6c-1.6,0.6-3.4,1-5.8,1c-3.4,0-6.4-1.6-6.5-5.5L122.4,128.3z M108.3,124.6
		c0.2-2.2,1.6-5.2,4.9-5.2c3.6,0,4.4,3.2,4.4,5.2H108.3z"/>
	<path id="path1777" class="st2" d="M126.9,146h5.3V135h0.1c1.1,1.7,3.3,2.8,5.9,2.8c4.8,0,9.6-3.7,9.6-11.3c0-6.6-4-10.7-8.9-10.7
		c-3.2,0-5.7,1.3-7.2,3.7h-0.1l-0.3-3.2h-4.7c0.1,2,0.2,4.2,0.2,7L126.9,146z M132.2,125.3c0-0.4,0.1-0.9,0.2-1.3
		c0.6-2.3,2.6-3.9,4.8-3.9c3.4,0,5.2,3,5.2,6.8c0,4.2-2,7-5.4,7c-2.3,0-4.2-1.6-4.7-3.7c-0.1-0.5-0.1-1-0.1-1.5V125.3z"/>
</g>
</svg>
