<?xml version="1.0" encoding="utf-8"?>
<!-- Generator: Adobe Illustrator 24.3.0, SVG Export Plug-In . SVG Version: 6.00 Build 0)  -->
<svg version="1.1" id="Ebene_1" xmlns="http://www.w3.org/2000/svg" xmlns:xlink="http://www.w3.org/1999/xlink" x="0px" y="0px"
	 viewBox="0 0 563.9 167.5" enable-background="new 0 0 563.9 167.5" xml:space="preserve">
<g>
	<g>
		<path fill="#1378BE" d="M23.3,135.1c3,1.7,6.3,2.6,10,2.6c6.5,0,11.2-2.1,14.1-6.4l0,5.4h11.2V80.3H47.1l0.1,20
			c-1.4-1.9-3.2-2.8-5.5-3.8c-2.3-1-4.8-1.5-7.7-1.5c-3.9,0-7.4,1-10.5,2.9c-3.1,1.9-5.5,4.5-7.2,7.7c-1.7,3.2-2.6,7.4-2.6,11.3
			c0,4.1,0.9,8.2,2.6,11.4C18,131.3,20.3,133.4,23.3,135.1z M28.4,108.8c2.1-2.1,4.8-3.2,8.1-3.2c3.3,0,6,1.1,8.1,3.2
			c2.1,2.1,3.1,4.8,3.1,8.2c0,3.4-1.1,6.1-3.2,8.2c-2.1,2.1-4.8,3.2-8.1,3.2c-3.3,0-6-1.1-8.1-3.2c-2.1-2.1-3.2-4.9-3.2-8.2
			C25.3,113.7,26.3,111,28.4,108.8z"/>
		<path fill="#1378BE" d="M193.6,99.3c-3-1.7-6.3-2.6-10-2.6c-6.5,0-11.2,2.1-14.1,6.4l0-5.4h-11.2v56.4h11.6l-0.1-20
			c1.4,1.9,3.2,2.8,5.5,3.8c2.3,1,4.8,1.5,7.7,1.5c3.9,0,7.4-1,10.5-2.9c3.1-1.9,5.5-4.5,7.2-7.7c1.7-3.2,2.6-7.4,2.6-11.3
			c0-4.1-0.9-8.2-2.6-11.4C198.9,103.1,196.5,101,193.6,99.3z M188.5,125.6c-2.1,2.1-4.8,3.2-8.1,3.2s-6-1.1-8.1-3.2
			c-2.1-2.1-3.1-4.8-3.1-8.2c0-3.4,1.1-6.1,3.2-8.2c2.1-2.1,4.8-3.2,8.1-3.2c3.3,0,6,1.1,8.1,3.2c2.1,2.1,3.2,4.9,3.2,8.2
			C191.6,120.7,190.6,123.5,188.5,125.6z"/>
		<path fill="#1378BE" d="M99,125c-2,2.1-5.2,3.9-9.9,3.5c-9.1-0.8-11.1-6-11.9-8.9h0c0,0,0,0,0,0h30.5c0.3-1.4,0.4-3,0.4-4.8
			c0-4.1-0.9-7.7-2.6-10.7c-1.7-3-4.1-5.3-7.2-6.9c-3.1-1.6-6.7-2.4-10.7-2.4c-4.4,0-8.3,0.9-11.6,2.8c-3.3,1.9-5.9,4.4-7.7,7.7
			c-1.8,3.3-2.7,6.9-2.7,11c0,1.2,0.1,2.3,0.2,3.3c0,0,0,0,0,0c1.9,12.5,12.7,17.9,23.2,18.1c8.4,0.1,13.1-3.4,14.7-5L99,125z
			 M80.5,105.4c1.8-1.5,4-2.3,6.7-2.3c2.8,0,5,0.8,6.7,2.3c1.7,1.5,2.6,3.7,2.9,6.5H77.1C77.7,109.1,78.8,106.9,80.5,105.4z"/>
		<path fill="#1378BE" d="M144.7,125c-2,2.1-5.2,3.9-9.9,3.5c-9.1-0.8-11.1-6-11.9-8.9h0c0,0,0,0,0,0h30.5c0.3-1.4,0.4-3,0.4-4.8
			c0-4.1-0.9-7.7-2.6-10.7c-1.7-3-4.1-5.3-7.2-6.9c-3.1-1.6-6.7-2.4-10.7-2.4c-4.4,0-8.3,0.9-11.6,2.8c-3.3,1.9-5.9,4.4-7.7,7.7
			c-1.8,3.3-2.7,6.9-2.7,11c0,1.2,0.1,2.3,0.2,3.3c0,0,0,0,0,0c1.9,12.5,12.7,17.9,23.2,18.1c8.4,0.1,13.1-3.4,14.7-5L144.7,125z
			 M126.2,105.4c1.8-1.5,4-2.3,6.7-2.3c2.8,0,5,0.8,6.7,2.3c1.7,1.5,2.6,3.7,2.9,6.5h-19.7C123.3,109.1,124.5,106.9,126.2,105.4z"/>
	</g>
	<g>
		<path fill="#4E4D4D" d="M162.7,35.8c-23.9-0.9-31.4-9.8-31.4-9.8s0.6,10.8,17.2,23.6c16.6,12.7,41.5,10.8,53.4,18
			c12,7.2,18.1,22.2,18.1,22.2s-5-33-14.4-41.7C196.3,39.2,186.4,36.6,162.7,35.8z M278.7,14.3c0,0-6.2,10.1-29.5,14.8
			s-32.9,8.9-40.4,19c3.5,4,6.5,10.6,9.2,20.4c8-9.1,34.2-13.1,48.2-28.3C280.2,25.1,278.7,14.3,278.7,14.3z"/>
		<path fill="#4E4D4D" d="M213.8,117.9c-0.2-4.4,3.7-7.7,8.2-7.7s8.2,3.3,8.2,7.7c0,4.2-3.5,7.7-8.2,7.7
			C217.4,125.6,213.8,122.3,213.8,117.9"/>
	</g>
	<g>
		<path fill="#1378BE" d="M440.7,99.3c-3-1.7-6.3-2.6-10-2.6c-6.5,0-11.2,2.1-14.1,6.4l0-5.4h-11.2v56.4h11.6l-0.1-20
			c1.4,1.9,3.2,2.8,5.5,3.8c2.3,1,4.8,1.5,7.7,1.5c3.9,0,7.4-1,10.5-2.9c3.1-1.9,5.5-4.5,7.2-7.7c1.7-3.2,2.6-7.4,2.6-11.3
			c0-4.1-0.9-8.2-2.6-11.4C446,103.1,443.7,101,440.7,99.3z M435.6,125.6c-2.1,2.1-4.8,3.2-8.1,3.2c-3.3,0-6-1.1-8.1-3.2
			c-2.1-2.1-3.1-4.8-3.1-8.2c0-3.4,1.1-6.1,3.2-8.2c2.1-2.1,4.8-3.2,8.1-3.2c3.3,0,6,1.1,8.1,3.2c2.1,2.1,3.2,4.9,3.2,8.2
			C438.7,120.7,437.7,123.5,435.6,125.6z"/>
		<path fill="#1378BE" d="M258.2,138.3c-3.2,0-6.2-0.3-9.1-1c-2.9-0.7-5.1-1.6-6.6-2.7l1.4-8.7c1.9,1.2,4.1,2.1,6.6,2.9
			c2.5,0.7,4.9,1.1,7.2,1.1c4.7,0,7-1.1,7-3.3c0-1.2-0.5-2.1-1.5-2.7c-1-0.6-3.1-1.3-6.2-2.2c-5-1.3-8.5-2.9-10.6-4.9
			c-2.1-2-3.2-4.7-3.2-8c0-3.8,1.5-6.7,4.6-8.9c3-2.2,7.2-3.2,12.5-3.2c2.6,0,5.2,0.3,7.8,0.9c2.6,0.6,4.7,1.3,6.4,2.2l-1.3,8.5
			c-1.7-0.9-3.7-1.7-5.9-2.2c-2.2-0.5-4.4-0.8-6.4-0.8c-4,0-6,1-6,3c0,1.1,0.5,2,1.4,2.7c1,0.6,2.9,1.4,5.8,2.1
			c5.3,1.4,9,3.1,11.2,5.1c2.2,2,3.3,4.7,3.3,8.1c0,3.8-1.6,6.8-4.8,9C268.3,137.2,263.8,138.3,258.2,138.3z"/>
		<path fill="#1378BE" d="M312.3,131.9l0,4.5h11.3V96.3h-11l0,5.3c-2.8-4.2-7.4-6.2-13.7-6.2c-3.6,0-6.9,0.8-9.8,2.5
			c-2.9,1.7-5.2,3.7-6.9,6.8c-1.7,3.1-2.5,7-2.5,11.1c0,3.7,0.9,7.9,2.5,11c1.7,3.1,4,5.6,7,7.5c3,1.9,6.5,2.8,10.2,2.8
			c2.8,0,5.3-0.5,7.5-1.5C309.1,134.7,310.9,133.7,312.3,131.9z M301.9,126.7c-3.3,0-5.9-1-7.9-3.1c-2-2.1-3.1-4.7-3.1-8
			c0-3.3,1-6,3.1-8.1c2.1-2.1,4.7-3.1,7.9-3.1c3.2,0,5.8,1,7.9,3.1c2.1,2.1,3.1,4.8,3.1,8.1c0,3.2-1,5.9-3.1,8
			C307.8,125.6,305.1,126.7,301.9,126.7z"/>
		<path fill="#1378BE" d="M332,97.1h11.1l0.1,4.9c1.3-2,3-3.5,5.2-4.6c2.2-1,4.7-1.6,7.7-1.6c6.1,0,10.5,2.4,12.9,7.1
			c1.2-2.1,3-3.8,5.4-5.1c2.5-1.3,5.2-1.9,8.1-1.9c5,0,8.9,1.4,11.5,4.3c2.7,2.8,4,7,4,12.5v23.9h-11.5v-21.9c0-3.2-0.6-5.5-1.8-7
			c-1.2-1.5-3.1-2.2-5.6-2.2c-2.5,0-4.6,0.9-6,2.6c-1.5,1.8-2.2,4.2-2.2,7.3v21.2h-11.5v-21.9c0-3.2-0.6-5.5-1.8-7
			c-1.2-1.5-3.1-2.2-5.7-2.2c-2.6,0-4.6,0.9-6.1,2.6c-1.5,1.8-2.2,4.2-2.2,7.2v21.3H332V97.1z"/>
		<path fill="#1378BE" d="M456.7,81.2h11.6v55.5h-11.6V81.2z"/>
		<path fill="#1378BE" d="M508.1,125c-2,2.1-5.2,3.9-9.9,3.5c-9.1-0.8-11.1-6-11.9-8.9h0c0,0,0,0,0,0h30.5c0.3-1.4,0.4-3,0.4-4.8
			c0-4.1-0.9-7.7-2.6-10.7c-1.7-3-4.1-5.3-7.2-6.9c-3.1-1.6-6.7-2.4-10.7-2.4c-4.4,0-8.3,0.9-11.6,2.8c-3.3,1.9-5.9,4.4-7.7,7.7
			c-1.8,3.3-2.7,6.9-2.7,11c0,1.2,0.1,2.3,0.2,3.3c0,0,0,0,0,0c1.9,12.5,12.7,17.9,23.2,18.1c8.4,0.1,13.1-3.4,14.7-5L508.1,125z
			 M489.6,105.4c1.8-1.5,4-2.3,6.7-2.3c2.8,0,5,0.8,6.7,2.3c1.7,1.5,2.6,3.7,2.9,6.5h-19.7C486.7,109.1,487.9,106.9,489.6,105.4z"/>
		<path fill="#1378BE" d="M521.8,96.5h11.3l0.1,6.6c1.2-2.4,2.8-4.2,4.8-5.4c2-1.3,4.3-1.9,7-1.9c1.8,0,3.5,0.3,5,0.9l-1,10.3
			c-1.7-0.6-3.5-0.9-5.2-0.9c-3.2,0-5.7,1.1-7.5,3.2c-1.8,2.2-2.7,5.2-2.7,9.1v18.3h-11.7V96.5z"/>
	</g>
</g>
</svg>
