<?xml version="1.0" encoding="UTF-8" standalone="no"?>
<svg
   xmlns:dc="http://purl.org/dc/elements/1.1/"
   xmlns:cc="http://creativecommons.org/ns#"
   xmlns:rdf="http://www.w3.org/1999/02/22-rdf-syntax-ns#"
   xmlns:svg="http://www.w3.org/2000/svg"
   xmlns="http://www.w3.org/2000/svg"
   xmlns:xlink="http://www.w3.org/1999/xlink"
   xmlns:sodipodi="http://sodipodi.sourceforge.net/DTD/sodipodi-0.dtd"
   xmlns:inkscape="http://www.inkscape.org/namespaces/inkscape"
   width="339.96686mm"
   height="200.00513mm"
   viewBox="0 0 339.96687 200.00513"
   version="1.1"
   id="svg8"
   inkscape:version="1.0.1 (3bc2e813f5, 2020-09-07)"
   sodipodi:docname="Whale.svg">
  <defs
     id="defs2">
    <linearGradient
       inkscape:collect="always"
       id="linearGradient3342-9">
      <stop
         style="stop-color:#000000;stop-opacity:1;"
         offset="0"
         id="stop3338" />
      <stop
         style="stop-color:#000000;stop-opacity:0"
         offset="1"
         id="stop3340" />
    </linearGradient>
    <linearGradient
       inkscape:collect="always"
       id="linearGradient3322">
      <stop
         style="stop-color:#000000;stop-opacity:1;"
         offset="0"
         id="stop3318" />
      <stop
         style="stop-color:#000000;stop-opacity:0;"
         offset="1"
         id="stop3320" />
    </linearGradient>
    <linearGradient
       inkscape:collect="always"
       id="linearGradient3310">
      <stop
         style="stop-color:#000000;stop-opacity:1;"
         offset="0"
         id="stop3306" />
      <stop
         style="stop-color:#000000;stop-opacity:0;"
         offset="1"
         id="stop3308" />
    </linearGradient>
    <linearGradient
       inkscape:collect="always"
       id="linearGradient3295">
      <stop
         style="stop-color:#000000;stop-opacity:1;"
         offset="0"
         id="stop3299" />
      <stop
         style="stop-color:#000000;stop-opacity:0;"
         offset="1"
         id="stop3301" />
    </linearGradient>
    <radialGradient
       inkscape:collect="always"
       xlink:href="#linearGradient3295"
       id="radialGradient3304"
       cx="200.25114"
       cy="119.94785"
       fx="200.25114"
       fy="119.94785"
       r="90.442566"
       gradientTransform="matrix(-0.85137836,-0.02089593,0.01182395,-0.48175212,406.96661,177.36052)"
       gradientUnits="userSpaceOnUse" />
    <linearGradient
       inkscape:collect="always"
       xlink:href="#linearGradient3322"
       id="linearGradient3324"
       x1="295.48236"
       y1="111.42689"
       x2="428.04489"
       y2="56.620338"
       gradientUnits="userSpaceOnUse" />
    <filter
       inkscape:collect="always"
       style="color-interpolation-filters:sRGB"
       id="filter3326"
       x="-0.0036408578"
       width="1.0072817"
       y="-0.0062482967"
       height="1.0124966">
      <feGaussianBlur
         inkscape:collect="always"
         stdDeviation="0.15601586"
         id="feGaussianBlur3328" />
    </filter>
    <linearGradient
       inkscape:collect="always"
       xlink:href="#linearGradient3310"
       id="linearGradient3332"
       x1="67.321854"
       y1="132.39987"
       x2="248.20699"
       y2="132.39987"
       gradientUnits="userSpaceOnUse" />
    <linearGradient
       inkscape:collect="always"
       xlink:href="#linearGradient3342-9"
       id="linearGradient3334"
       gradientUnits="userSpaceOnUse"
       x1="198.47958"
       y1="156.21236"
       x2="30.112679"
       y2="78.857864" />
    <radialGradient
       inkscape:collect="always"
       xlink:href="#linearGradient3342-9"
       id="radialGradient3336"
       gradientUnits="userSpaceOnUse"
       gradientTransform="matrix(-0.60900876,0.1309988,-0.14958399,-0.69541042,303.89081,361.34374)"
       cx="243.86273"
       cy="469.18979"
       fx="243.86273"
       fy="469.18979"
       r="90.442566" />
    <linearGradient
       inkscape:collect="always"
       xlink:href="#linearGradient3342-9"
       id="linearGradient3373"
       gradientUnits="userSpaceOnUse"
       x1="227.65511"
       y1="133.104"
       x2="231.76295"
       y2="196.40845"
       gradientTransform="rotate(-6.1315647,199.79794,423.00811)" />
    <radialGradient
       inkscape:collect="always"
       xlink:href="#linearGradient3342-9"
       id="radialGradient3375"
       gradientUnits="userSpaceOnUse"
       gradientTransform="matrix(1.7641336,1.2494427,-0.41111976,0.58047529,-189.48947,-495.75786)"
       cx="243.86273"
       cy="469.18979"
       fx="243.86273"
       fy="469.18979"
       r="90.442566" />
  </defs>
  <sodipodi:namedview
     id="base"
     pagecolor="#ffffff"
     bordercolor="#666666"
     borderopacity="1.0"
     inkscape:pageopacity="0.0"
     inkscape:pageshadow="2"
     inkscape:zoom="0.49497475"
     inkscape:cx="262.64962"
     inkscape:cy="545.86158"
     inkscape:document-units="mm"
     inkscape:current-layer="layer1"
     inkscape:document-rotation="0"
     showgrid="false"
     inkscape:snap-to-guides="false"
     inkscape:snap-grids="false"
     inkscape:snap-others="false"
     inkscape:object-nodes="false"
     inkscape:snap-nodes="false"
     inkscape:window-width="1500"
     inkscape:window-height="948"
     inkscape:window-x="-6"
     inkscape:window-y="-6"
     inkscape:window-maximized="1"
     fit-margin-top="0"
     fit-margin-left="0"
     fit-margin-right="0"
     fit-margin-bottom="0" />
  <metadata
     id="metadata5">
    <rdf:RDF>
      <cc:Work
         rdf:about="">
        <dc:format>image/svg+xml</dc:format>
        <dc:type
           rdf:resource="http://purl.org/dc/dcmitype/StillImage" />
        <dc:title></dc:title>
      </cc:Work>
    </rdf:RDF>
  </metadata>
  <g
     inkscape:label="Ebene 1"
     inkscape:groupmode="layer"
     id="layer1"
     transform="translate(-60.896221,20.345649)">
    <path
       style="opacity:0.4;fill:url(#linearGradient3324);fill-opacity:1;stroke:#000000;stroke-width:0.271047px;stroke-linecap:butt;stroke-linejoin:miter;stroke-opacity:1;filter:url(#filter3326)"
       d="m 358.33212,62.697901 c -4.30359,-0.10658 -19.56823,-0.341 -26.05971,1.39273 -4.64198,1.27806 -13.51877,6.9546 -18.51901,9.33875 -4.75852,2.26886 -5.34032,4.13657 -7.12945,5.83712 -3.66915,3.48748 -6.72393,9.709061 -8.59097,13.85391 -0.79782,1.771189 -2.47842,7.251479 -3.12335,10.156979 -0.56512,2.54567 0.19659,5.00293 -0.23681,8.98731 -0.28926,2.65898 3.17639,2.46295 7.50277,2.95881 6.29973,-5.2804 10.1483,-10.28765 12.58044,-12.27407 4.66534,-4.135228 8.70368,-5.152969 12.72153,-6.931249 0,0 0.39542,0.536771 0.84042,2.00478 0.10191,0.336251 -0.55207,1.051621 -0.44908,1.490321 0.10682,0.45307 0.94631,0.505728 1.01836,0.849818 0.22698,1.08373 -0.40029,0.70361 0.13039,2.00908 0.17599,0.43301 1.06426,0.891 1.34534,1.49342 0.1638,0.35123 -0.31005,1.11253 -0.0111,1.65546 0.32986,0.60061 1.12812,0.76967 1.58441,1.519 0.43212,0.70969 -0.0746,1.12068 0.43603,1.88493 0.34453,0.51563 0.80775,0.0139 1.17514,0.52493 0.0918,0.12749 -0.0197,1.02874 0.26601,1.53365 0.23761,0.41996 0.857,0.41149 1.10773,0.8787 0.28476,0.53059 0.20919,1.49466 0.35931,1.81859 0.17926,0.38676 0.8528,0.20452 1.11456,0.52439 1.99496,2.43778 4.03501,4.21205 5.37818,3.64368 -1.98705,-5.76815 -3.34122,-12.43574 -4.13132,-15.221 -1.18248,-4.168597 -3.85062,-8.108738 -4.14043,-9.070509 3.72326,-1.52531 4.95081,-0.56516 7.89601,-1.968349 1.07471,2.51116 1.1005,2.666669 2.31922,4.66549 0.251,0.411679 1.69372,1.255768 1.97698,1.74466 0.41615,0.718209 1.44217,0.400299 2.06568,1.14508 0.28621,0.3419 0.22962,0.947568 0.52756,1.255178 0.45164,0.46622 1.2771,0.60039 1.75063,1.00404 0.52155,0.44461 0.2845,1.29453 0.82466,1.68814 0.41318,0.30103 1.82952,0.55815 2.24931,0.84282 0.39859,0.27031 0.56668,1.24121 0.96797,1.50704 0.3813,0.25257 1.09514,-0.14742 1.47607,0.1099 0.72617,0.49055 0.51017,0.83795 1.22062,1.3911 0.65272,0.50814 0.9881,0.34791 1.61227,0.957 0.28325,0.24902 0.73621,1.13809 1.02637,1.37719 0.42587,0.35094 0.89544,0.25898 1.32963,0.58433 0.34398,0.25774 0.0551,0.74256 1.47289,1.08567 0.41254,0.0999 0.46609,1.03234 1.54728,0.95384 0.48187,-0.0349 0.81177,0.5023 1.20884,0.7271 3.06922,1.73759 5.72152,2.3828 6.42063,0.95219 -3.37087,-4.69957 -4.81031,-7.71305 -9.48189,-11.85124 -3.74776,-3.319848 -4.1798,-6.675939 -6.65199,-10.52868 -1.37694,-3.37448 -2.27768,-0.189309 -5.07925,-3.53486 1.95838,-1.002458 3.90997,-1.893379 5.57221,-3.0549 2.24941,-1.571809 16.31725,-5.949729 16.86299,-7.178419 1.11494,-0.72756 4.42308,-0.67316 6.70556,-1.15771 2.28255,-0.48455 9.31407,-3.08588 11.00716,-3.38226 1.69305,-0.29642 3.89111,-0.24253 7.17038,0.79022 -0.95475,-3.31507 -12.10762,-3.36552 -15.18507,-3.41461 -2.02127,-0.11912 -6.32972,0.73071 -8.97536,0.37373 -1.77913,-0.24008 -5.08811,-2.4905 -7.06462,-3.93876 -0.96253,-0.70529 -2.07068,-1.10546 -2.98674,-2.64771 0.61968,-2.09658 -0.0885,-3.53673 1.17246,-5.89969 -1.17606,-1.028 -4.50796,4.583 -6.1271,4.54292 z"
       id="path833-7"
       sodipodi:nodetypes="scssssscccssssssssssssscsccsssssssssscssssscsccsczzccssccss" />
    <path
       style="opacity:0.789474;mix-blend-mode:luminosity;fill:url(#linearGradient3373);fill-opacity:1;stroke:url(#radialGradient3375);stroke-width:0.404052px;stroke-linecap:butt;stroke-linejoin:miter;stroke-opacity:1"
       d="m 200.25931,131.56596 c 0.0548,1.28852 2.29923,1.9606 2.92056,3.98401 0.44169,1.43845 2.38541,2.35907 2.53138,2.86111 0.32704,1.12482 -1.08689,2.84157 -1.08031,4.25439 0.006,1.17105 0.97252,2.16955 0.88793,3.22038 -0.10633,1.321 -1.01556,1.8935 -1.05389,2.51009 -0.0508,0.82046 1.1292,1.61907 1.12804,2.43448 -0.001,0.91634 -1.18081,1.85053 -1.1865,2.79452 -0.004,0.7393 1.04049,0.86021 0.99442,1.63619 -0.0428,0.72071 -0.77903,0.95679 -0.88617,1.72357 -0.13245,0.94798 1.27904,0.48127 1.00148,1.5233 -0.15271,0.5732 -0.75619,0.65566 -1.45971,1.90555 -0.32322,0.57426 0.21784,0.78771 -0.0879,1.56665 -0.19033,0.485 -0.93204,0.91304 -1.30513,1.46009 -0.35561,0.52151 0.11031,1.53521 0.0357,1.71178 -0.69979,1.64957 -0.80074,0.48828 -1.65892,1.67964 -0.3948,0.54798 -0.603,1.9714 -1.12141,2.88195 -0.76478,1.34334 -1.84082,2.16743 -2.21905,2.28782 -0.85321,0.27157 -0.26103,-4.60415 -1.47988,-15.49087 -1.01473,-9.06475 -3.28266,-11.60103 -3.85629,-14.70189 -0.54304,-4.56629 0.21382,-3.83314 1.03223,-9.4254"
       id="path3371"
       sodipodi:nodetypes="csscscscssssscccssccc" />
    <path
       style="opacity:0.789474;mix-blend-mode:luminosity;fill:url(#linearGradient3334);fill-opacity:1;stroke:url(#radialGradient3336);stroke-width:0.404052px;stroke-linecap:butt;stroke-linejoin:miter;stroke-opacity:1"
       d="m 186.49498,133.40362 c -0.395,0.0692 -1.08078,1.09059 -1.45597,1.96796 -0.37523,0.87734 1.52362,1.03442 0.79521,2.93296 -0.72842,1.89854 -1.99981,1.25459 -2.83149,2.75106 -0.42813,0.77048 0.28092,1.78087 -0.37215,2.80901 -0.49485,0.77908 -2.32076,1.5621 -2.86508,2.2946 -0.51435,0.69215 -0.18357,1.85625 -0.68252,2.36116 -0.6631,0.67126 -2.1343,0.80517 -2.71452,1.46189 -0.86069,0.97419 0.71308,1.38733 0.0121,2.32871 -0.71945,0.96453 -2.1689,1.00595 -2.75234,1.93501 -0.92793,1.4776 1.47338,1.44441 0.7885,2.82886 -0.45542,0.92059 -2.56179,1.03992 -3.75667,2.47024 -0.612,0.73265 0.26781,1.41724 -0.34766,2.51241 -0.72926,1.29768 -1.35354,0.81094 -1.78575,2.24445 -0.33539,1.11239 1.33629,0.56646 0.63752,1.67614 -0.34789,0.55251 -1.47022,0.66374 -1.98783,2.03113 -0.44189,1.16712 -2.92273,3.19792 -3.2988,3.7363 -2.22236,3.18103 -6.71893,4.64519 -7.11117,3.80026 -1.98764,-4.28203 5.78635,-13.28981 5.89957,-27.0499 0.0647,-7.82651 7.56232,-14.53183 5.67275,-14.48589 -3.33391,0.0811 -6.75099,0.0594 -10.2964,-0.0767 -5.9133,-0.22709 -18.77719,-1.67122 -27.27535,-5.05583 -6.93432,-2.76179 -14.25927,-7.89688 -18.92787,-15.96991 -4.81765,-8.33082 -5.81954,-7.78959 -10.58757,-10.0805 -4.768076,-2.2909 -5.111856,-1.13049 -8.157106,-0.97229 -3.04527,0.15822 -6.84272,1.86246 -9.80909,2.2214 -2.96632,0.35895 -5.25126,-0.0517 -7.858966,0.14453 -2.60769,0.19608 -6.908948,3.25058 -7.759928,1.02859 -0.851026,-2.22199 2.119683,-1.69081 5.877761,-3.5921 3.160353,-1.59891 7.101123,-1.08031 8.696113,-1.55982 3.49163,-1.049694 7.07912,-2.717161 10.01318,-3.620238 2.93405,-0.903032 9.115966,-0.8541 9.115966,-0.8541 5.81027,-0.544384 12.43305,1.820486 12.43305,1.820486 l -0.001,-2.92e-4 c 0,0 8.65493,1.795303 14.72179,-0.170426 3.28052,-1.062938 5.11044,-1.796584 4.40598,-8.245987 2.85925,0.110763 4.22343,8.468389 7.25304,8.798328 8.3171,0.905744 16.69473,4.584839 21.94039,4.575339 13.61347,-0.0244 33.91718,-1.67403 33.91718,-1.67403 0,0 3.99026,-1.078502 10.53719,-1.62474 4.7631,-0.397377 8.24995,4.06939 14.73045,4.5167 9.11138,0.62885 10.82157,3.44865 20.18123,5.52146 1.78234,0.3947 3.43358,2.00206 4.39974,2.47601 4.10727,2.01489 1.33494,3.65939 -0.71259,8.06969 -1.34509,2.89726 -8.4588,3.40196 -13.88672,4.37934 -4.82051,0.868 -12.17398,4.90577 -16.17856,5.61191"
       id="path833" />
    <g
       id="g937"
       transform="matrix(0.72953015,0,0,0.72953015,160.64792,32.063354)">
      <path
         id="path12-2-8-3"
         class="st0"
         d="m 73.068502,-39.807883 c -5,-5 -10.3,-6.5 -23,-7 -12.7,-0.5 -16.7,-5.6 -16.7,-5.6 0,0 0.3,6.2 9.1,13.5 8.9,7.299997 22.2,6.199997 28.6,10.299997 6.4,4.1 9.7,12.8 9.7,12.8 0,0 -2.7,-19 -7.7,-23.999997 z" />
      <path
         id="path12-5-4-5-9"
         class="st1"
         d="m 74.768502,-39.707883 c 4,-5.8 9.1,-8.2 21.6,-10.9 12.499998,-2.7 15.799998,-8.5 15.799998,-8.5 0,0 0.8,6.2 -6.7,14.9 -7.499998,8.699997 -21.499998,10.999997 -25.799998,16.199997 -1.4,-5.6 -3,-9.399997 -4.9,-11.699997 z" />
      <g
         id="text912-8-9-9"
         transform="matrix(0.81749016,0,0,0.93127825,-14.94827,-116.89625)">
	<path
   id="path1780"
   class="st2"
   d="m 131.1,135.9 c 1.6,1 4.8,1.9 7.9,1.9 7.5,0 11,-4.1 11,-8.8 0,-4.2 -2.4,-6.8 -7.5,-8.7 -3.9,-1.5 -5.6,-2.6 -5.6,-4.8 0,-1.7 1.4,-3.5 4.8,-3.5 2.7,0 4.8,0.8 5.8,1.4 l 1.3,-4.3 c -1.5,-0.8 -3.8,-1.5 -7,-1.5 -6.4,0 -10.4,3.6 -10.4,8.4 0,4.2 3.1,6.8 7.9,8.5 3.7,1.3 5.2,2.6 5.2,4.9 0,2.4 -1.9,4 -5.3,4 -2.7,0 -5.4,-0.9 -7.1,-1.9 z" />

	<path
   id="path1782"
   class="st2"
   d="m 171.3,124.6 c 0,-4.6 -1.9,-8.9 -8.7,-8.9 -3.3,0 -6.1,0.9 -7.6,1.9 l 1,3.5 c 1.4,-0.9 3.6,-1.6 5.7,-1.6 3.7,0 4.3,2.3 4.3,3.7 v 0.3 c -7.8,0 -12.5,2.7 -12.5,8 0,3.2 2.4,6.3 6.6,6.3 2.8,0 5,-1.2 6.2,-2.8 h 0.1 l 0.4,2.3 h 4.8 c -0.3,-1.3 -0.3,-3.2 -0.3,-5.1 z m -5.2,5.3 c 0,0.4 0,0.8 -0.1,1.2 -0.5,1.5 -2,2.9 -4.2,2.9 -1.7,0 -3,-1 -3,-3 0,-3.2 3.6,-4 7.4,-3.9 v 2.8 z" />

	<path
   id="path1784"
   class="st2"
   d="m 176.9,137.3 h 5.2 v -12.5 c 0,-0.6 0.1,-1.2 0.3,-1.8 0.5,-1.4 1.9,-3 3.9,-3 2.5,0 3.6,2.1 3.6,5 v 12.2 h 5.2 v -12.7 c 0,-0.6 0.1,-1.3 0.3,-1.8 0.6,-1.5 1.9,-2.8 3.7,-2.8 2.6,0 3.8,2.1 3.8,5.6 v 11.7 h 5.2 v -12.4 c 0,-6.8 -3.6,-9.1 -7,-9.1 -1.8,0 -3.1,0.4 -4.3,1.3 -1,0.6 -1.8,1.5 -2.6,2.6 H 194 c -0.9,-2.3 -3.1,-3.9 -5.8,-3.9 -3.6,0 -5.5,1.9 -6.5,3.6 h -0.1 l -0.3,-3.1 h -4.5 c 0.1,1.8 0.2,3.9 0.2,6.3 z" />

	<path
   id="path1786"
   class="st2"
   d="m 213.7,145.8 h 5.3 v -10.9 h 0.1 c 1.1,1.7 3.3,2.8 5.9,2.8 4.8,0 9.6,-3.7 9.6,-11.3 0,-6.6 -4,-10.7 -8.9,-10.7 -3.2,0 -5.7,1.3 -7.2,3.7 h -0.1 l -0.3,-3.2 h -4.7 c 0.1,2 0.2,4.2 0.2,7 v 22.6 z m 5.3,-20.6 c 0,-0.4 0.1,-0.9 0.2,-1.3 0.6,-2.3 2.6,-3.9 4.8,-3.9 3.4,0 5.2,3 5.2,6.8 0,4.2 -2,7 -5.4,7 -2.3,0 -4.2,-1.6 -4.7,-3.7 -0.1,-0.5 -0.1,-1 -0.1,-1.5 z" />

	<path
   id="path1788"
   class="st2"
   d="m 239,137.3 h 5.3 V 106.5 H 239 Z" />

	<path
   id="path1790"
   class="st2"
   d="m 268.1,128.2 c 0.1,-0.5 0.2,-1.3 0.2,-2.3 0,-4.6 -2.3,-10.3 -9.1,-10.3 -6.8,0 -10.3,5.5 -10.3,11.4 0,6.5 4,10.7 10.9,10.7 3,0 5.5,-0.6 7.4,-1.3 l -0.8,-3.6 c -1.6,0.6 -3.4,1 -5.8,1 -3.4,0 -6.4,-1.6 -6.5,-5.5 z M 254,124.5 c 0.2,-2.2 1.6,-5.2 4.9,-5.2 3.6,0 4.4,3.2 4.4,5.2 z" />

	<path
   id="path1792"
   class="st2"
   d="m 272.5,137.3 h 5.3 v -11 c 0,-0.6 0,-1.1 0.1,-1.6 0.5,-2.4 2.3,-4 4.8,-4 0.6,0 1.1,0 1.6,0.1 v -5 c -0.4,-0.1 -0.7,-0.1 -1.3,-0.1 -2.3,0 -4.8,1.5 -5.8,4.5 h -0.1 l -0.2,-4 h -4.6 c 0.1,1.9 0.2,3.9 0.2,6.8 z" />

</g>
      <g
         class="st3"
         id="g907"
         transform="translate(-7.2314976,-59.207883)">
	<path
   class="st4"
   d="m 84.7,59.5 c -0.1,-2.5 2,-4.4 4.4,-4.4 2.4,0 4.4,1.9 4.4,4.4 0,2.4 -1.9,4.4 -4.4,4.4 -2.5,0 -4.4,-1.9 -4.4,-4.4 z"
   id="path905" />

</g>
      <g
         id="text912-8-9-2"
         transform="matrix(0.81749016,0,0,0.93127825,-50.404513,-116.83382)">
	<path
   id="path1771"
   class="st2"
   d="m 52.8,137.3 c 1.8,0.2 4.1,0.4 7.2,0.4 5.7,0 10.3,-1.3 13.2,-4 2.8,-2.5 4.5,-6.4 4.5,-11.6 0,-4.9 -1.7,-8.4 -4.6,-10.7 -2.7,-2.3 -6.4,-3.4 -11.9,-3.4 -3.2,0 -6.1,0.3 -8.5,0.6 z m 5.3,-24.9 c 0.8,-0.2 1.9,-0.3 3.6,-0.3 6.7,0 10.4,3.7 10.4,10.1 0,7.4 -4.1,11.3 -11,11.2 -1.1,0 -2.2,0 -2.9,-0.1 v -20.9 z" />

	<path
   id="path1773"
   class="st2"
   d="m 100.1,128.3 c 0.1,-0.5 0.2,-1.3 0.2,-2.3 0,-4.6 -2.3,-10.3 -9.1,-10.3 -6.8,0 -10.3,5.5 -10.3,11.4 0,6.5 4,10.7 10.9,10.7 3,0 5.5,-0.6 7.4,-1.3 l -0.8,-3.6 c -1.6,0.6 -3.4,1 -5.8,1 -3.4,0 -6.4,-1.6 -6.5,-5.5 z M 86,124.6 c 0.2,-2.2 1.6,-5.2 4.9,-5.2 3.6,0 4.4,3.2 4.4,5.2 z" />

	<path
   id="path1775"
   class="st2"
   d="m 122.4,128.3 c 0.1,-0.5 0.2,-1.3 0.2,-2.3 0,-4.6 -2.3,-10.3 -9.1,-10.3 -6.8,0 -10.3,5.5 -10.3,11.4 0,6.5 4,10.7 10.9,10.7 3,0 5.5,-0.6 7.4,-1.3 l -0.8,-3.6 c -1.6,0.6 -3.4,1 -5.8,1 -3.4,0 -6.4,-1.6 -6.5,-5.5 z m -14.1,-3.7 c 0.2,-2.2 1.6,-5.2 4.9,-5.2 3.6,0 4.4,3.2 4.4,5.2 z" />

	<path
   id="path1777"
   class="st2"
   d="m 126.9,146 h 5.3 v -11 h 0.1 c 1.1,1.7 3.3,2.8 5.9,2.8 4.8,0 9.6,-3.7 9.6,-11.3 0,-6.6 -4,-10.7 -8.9,-10.7 -3.2,0 -5.7,1.3 -7.2,3.7 h -0.1 l -0.3,-3.2 h -4.7 c 0.1,2 0.2,4.2 0.2,7 z m 5.3,-20.7 c 0,-0.4 0.1,-0.9 0.2,-1.3 0.6,-2.3 2.6,-3.9 4.8,-3.9 3.4,0 5.2,3 5.2,6.8 0,4.2 -2,7 -5.4,7 -2.3,0 -4.2,-1.6 -4.7,-3.7 -0.1,-0.5 -0.1,-1 -0.1,-1.5 z" />

</g>
    </g>
    <text
       xml:space="preserve"
       style="font-style:normal;font-variant:normal;font-weight:normal;font-stretch:normal;font-size:12.5234px;line-height:1.25;font-family:Candara;-inkscape-font-specification:Candara;letter-spacing:0px;word-spacing:0px;fill:#37abc8;fill-opacity:1;stroke:none;stroke-width:0.313084"
       x="119.21062"
       y="71.848694"
       id="text3379"><tspan
         sodipodi:role="line"
         id="tspan3377"
         x="119.21062"
         y="71.848694"
         style="fill:#37abc8;fill-opacity:1;stroke-width:0.313084">A stubbing framework for CompoundTests</tspan></text>
  </g>
  <style
     type="text/css"
     id="style892">
	.st0{fill:#4D4D4D;stroke:#4D4D4D;stroke-width:0.2919;stroke-linejoin:round;stroke-miterlimit:11.3386;}
	.st1{fill:#4D4D4D;stroke:#4D4D4D;stroke-width:0.2915;stroke-linejoin:round;stroke-miterlimit:11.3386;}
	.st2{fill:#37ABC8;}
	.st3{enable-background:new    ;}
	.st4{fill:#4D4D4D;}
</style>
</svg>
