<?xml version="1.0" encoding="UTF-8" standalone="no"?>
<svg
   xmlns:dc="http://purl.org/dc/elements/1.1/"
   xmlns:cc="http://creativecommons.org/ns#"
   xmlns:rdf="http://www.w3.org/1999/02/22-rdf-syntax-ns#"
   xmlns:svg="http://www.w3.org/2000/svg"
   xmlns="http://www.w3.org/2000/svg"
   xmlns:sodipodi="http://sodipodi.sourceforge.net/DTD/sodipodi-0.dtd"
   xmlns:inkscape="http://www.inkscape.org/namespaces/inkscape"
   width="297mm"
   height="110mm"
   viewBox="0 0 297 110"
   version="1.1"
   id="svg1523"
   inkscape:version="1.0.1 (3bc2e813f5, 2020-09-07)"
   sodipodi:docname="Whale-diving.svg">
  <defs
     id="defs1517" />
  <sodipodi:namedview
     id="base"
     pagecolor="#ffffff"
     bordercolor="#666666"
     borderopacity="1.0"
     inkscape:pageopacity="0.0"
     inkscape:pageshadow="2"
     inkscape:zoom="0.49497475"
     inkscape:cx="397.40188"
     inkscape:cy="560.06442"
     inkscape:document-units="mm"
     inkscape:current-layer="layer1"
     inkscape:document-rotation="0"
     showgrid="false"
     inkscape:window-width="1500"
     inkscape:window-height="948"
     inkscape:window-x="-6"
     inkscape:window-y="-6"
     inkscape:window-maximized="1" />
  <metadata
     id="metadata1520">
    <rdf:RDF>
      <cc:Work
         rdf:about="">
        <dc:format>image/svg+xml</dc:format>
        <dc:type
           rdf:resource="http://purl.org/dc/dcmitype/StillImage" />
        <dc:title></dc:title>
      </cc:Work>
    </rdf:RDF>
  </metadata>
  <g
     inkscape:label="Ebene 1"
     inkscape:groupmode="layer"
     id="layer1">
    <path
       style="fill:#000000;fill-opacity:1;stroke:#000000;stroke-width:0.271048px;stroke-linecap:butt;stroke-linejoin:miter;stroke-opacity:1"
       d="m 242.28975,28.411567 c -4.30359,-0.10658 -19.56823,-0.341 -26.05971,1.39273 -4.64198,1.27806 -13.51877,6.9546 -18.51901,9.33875 -4.75852,2.26886 -5.34032,4.13657 -7.12945,5.83712 -3.66915,3.48748 -6.72393,9.70906 -8.59097,13.85391 -0.79782,1.77119 -2.47842,7.25148 -3.12335,10.15698 -0.56512,2.54567 0.19659,5.00293 -0.23681,8.98731 -0.28926,2.65898 3.17639,2.46295 7.50277,2.95881 6.29973,-5.2804 10.1483,-10.28765 12.58044,-12.27407 4.66534,-4.13523 8.70368,-5.15297 12.72153,-6.93125 0,0 0.39542,0.53677 0.84042,2.00478 0.10191,0.33625 -0.55207,1.05162 -0.44908,1.49032 0.10682,0.45307 0.94631,0.50573 1.01836,0.84982 0.22698,1.08373 -0.40029,0.70361 0.13039,2.00908 0.17599,0.43301 1.06426,0.891 1.34534,1.49342 0.1638,0.35123 -0.31005,1.11253 -0.0111,1.65546 0.32985,0.60061 1.12812,0.76967 1.5844,1.519 0.43213,0.70969 -0.0746,1.12068 0.43603,1.88493 0.34454,0.51563 0.80775,0.0139 1.17514,0.52493 0.0918,0.12749 -0.0197,1.02874 0.26601,1.53365 0.23762,0.41996 0.857,0.41149 1.10773,0.8787 0.28476,0.53059 0.2092,1.49466 0.35931,1.81859 0.17926,0.38676 0.8528,0.20452 1.11456,0.52439 1.99496,2.43778 4.03501,4.21205 5.37818,3.64368 -1.98705,-5.76815 -3.34121,-12.43574 -4.13132,-15.221 -1.18248,-4.1686 -3.85061,-8.10874 -4.14043,-9.07051 3.72327,-1.52531 4.95081,-0.56516 7.89601,-1.96835 1.07472,2.51116 1.1005,2.66667 2.31922,4.66549 0.251,0.41168 1.69373,1.25577 1.97699,1.74466 0.41615,0.71821 1.44217,0.4003 2.06568,1.14508 0.28621,0.3419 0.22962,0.94757 0.52756,1.25518 0.45164,0.46622 1.2771,0.60039 1.75063,1.00404 0.52155,0.44461 0.2845,1.29453 0.82466,1.68814 0.41318,0.30103 1.82952,0.55815 2.24931,0.84282 0.39859,0.27031 0.56668,1.24121 0.96797,1.50704 0.3813,0.25257 1.09514,-0.14742 1.47607,0.1099 0.72617,0.49055 0.51017,0.83795 1.22062,1.3911 0.65272,0.50814 0.9881,0.34791 1.61227,0.957 0.28325,0.24902 0.73621,1.13809 1.02637,1.37719 0.42587,0.35094 0.89544,0.25898 1.32963,0.58433 0.34398,0.25774 0.0551,0.74256 1.47289,1.08567 0.41254,0.0999 0.46609,1.03234 1.54728,0.95384 0.48187,-0.0349 0.81177,0.5023 1.20884,0.7271 3.06922,1.73759 5.72152,2.3828 6.42063,0.95219 -3.37087,-4.69957 -4.81031,-7.71305 -9.48189,-11.85124 -3.74776,-3.31985 -4.1798,-6.67594 -6.65199,-10.52868 -1.37694,-3.37448 -2.27768,-0.18931 -5.07925,-3.53486 1.95838,-1.00246 3.90997,-1.89338 5.57221,-3.0549 2.24941,-1.57181 16.31725,-5.94973 16.86299,-7.17842 1.11494,-0.72756 4.42308,-0.67316 6.70556,-1.15771 2.28255,-0.48455 9.31407,-3.08588 11.00716,-3.38226 1.69305,-0.29642 3.89111,-0.24253 7.17038,0.79022 -0.95476,-3.31507 -12.10763,-3.36552 -15.18508,-3.41461 -2.02127,-0.11912 -6.32972,0.73071 -8.97536,0.37373 -1.77913,-0.24008 -5.08811,-2.4905 -7.06462,-3.93876 -0.96253,-0.70529 -2.07068,-1.10546 -2.98674,-2.64771 0.61968,-2.09658 -0.0885,-3.53673 1.17246,-5.89969 -1.17606,-1.028 -4.50796,4.583 -6.1271,4.54292 z"
       id="path833-7"
       sodipodi:nodetypes="scssssscccssssssssssssscsccsssssssssscssssscsccsczzccssccss" />
  </g>
</svg>
