<?xml version="1.0" encoding="UTF-8" standalone="no"?>
<svg
   xmlns:dc="http://purl.org/dc/elements/1.1/"
   xmlns:cc="http://creativecommons.org/ns#"
   xmlns:rdf="http://www.w3.org/1999/02/22-rdf-syntax-ns#"
   xmlns:svg="http://www.w3.org/2000/svg"
   xmlns="http://www.w3.org/2000/svg"
   xmlns:xlink="http://www.w3.org/1999/xlink"
   xmlns:sodipodi="http://sodipodi.sourceforge.net/DTD/sodipodi-0.dtd"
   xmlns:inkscape="http://www.inkscape.org/namespaces/inkscape"
   width="339.96686mm"
   height="200.00513mm"
   viewBox="0 0 339.96687 200.00513"
   version="1.1"
   id="svg8"
   inkscape:version="1.0.1 (3bc2e813f5, 2020-09-07)"
   sodipodi:docname="Whale.svg">
  <defs
     id="defs2">
    <linearGradient
       inkscape:collect="always"
       id="linearGradient3342-9">
      <stop
         style="stop-color:#000000;stop-opacity:1;"
         offset="0"
         id="stop3338" />
      <stop
         style="stop-color:#000000;stop-opacity:0"
         offset="1"
         id="stop3340" />
    </linearGradient>
    <linearGradient
       inkscape:collect="always"
       id="linearGradient3322">
      <stop
         style="stop-color:#000000;stop-opacity:1;"
         offset="0"
         id="stop3318" />
      <stop
         style="stop-color:#000000;stop-opacity:0;"
         offset="1"
         id="stop3320" />
    </linearGradient>
    <linearGradient
       inkscape:collect="always"
       id="linearGradient3310">
      <stop
         style="stop-color:#000000;stop-opacity:1;"
         offset="0"
         id="stop3306" />
      <stop
         style="stop-color:#000000;stop-opacity:0;"
         offset="1"
         id="stop3308" />
    </linearGradient>
    <linearGradient
       inkscape:collect="always"
       id="linearGradient3295">
      <stop
         style="stop-color:#000000;stop-opacity:1;"
         offset="0"
         id="stop3299" />
      <stop
         style="stop-color:#000000;stop-opacity:0;"
         offset="1"
         id="stop3301" />
    </linearGradient>
    <radialGradient
       inkscape:collect="always"
       xlink:href="#linearGradient3295"
       id="radialGradient3304"
       cx="200.25114"
       cy="119.94785"
       fx="200.25114"
       fy="119.94785"
       r="90.442566"
       gradientTransform="matrix(-0.85137836,-0.02089593,0.01182395,-0.48175212,406.96661,177.36052)"
       gradientUnits="userSpaceOnUse" />
    <linearGradient
       inkscape:collect="always"
       xlink:href="#linearGradient3322"
       id="linearGradient3324"
       x1="295.48236"
       y1="111.42689"
       x2="428.04489"
       y2="56.620338"
       gradientUnits="userSpaceOnUse"
       gradientTransform="translate(-63.241321,-55.757121)" />
    <filter
       inkscape:collect="always"
       style="color-interpolation-filters:sRGB"
       id="filter3326"
       x="-0.0036408578"
       width="1.0072817"
       y="-0.0062482967"
       height="1.0124966">
      <feGaussianBlur
         inkscape:collect="always"
         stdDeviation="0.15601586"
         id="feGaussianBlur3328" />
    </filter>
    <linearGradient
       inkscape:collect="always"
       xlink:href="#linearGradient3310"
       id="linearGradient3332"
       x1="67.321854"
       y1="132.39987"
       x2="248.20699"
       y2="132.39987"
       gradientUnits="userSpaceOnUse" />
    <linearGradient
       inkscape:collect="always"
       xlink:href="#linearGradient3342-9"
       id="linearGradient3334"
       gradientUnits="userSpaceOnUse"
       x1="198.47958"
       y1="156.21236"
       x2="30.112679"
       y2="78.857864"
       gradientTransform="matrix(-1,0,0,1,388.64348,-8.8133814)" />
    <linearGradient
       inkscape:collect="always"
       xlink:href="#linearGradient3342-9"
       id="linearGradient3373"
       gradientUnits="userSpaceOnUse"
       x1="227.65511"
       y1="133.104"
       x2="231.76295"
       y2="196.40845"
       gradientTransform="matrix(-0.99427925,-0.10681184,-0.10681184,0.99427925,433.38727,14.947328)" />
    <radialGradient
       inkscape:collect="always"
       xlink:href="#linearGradient3342-9"
       id="radialGradient3375"
       gradientUnits="userSpaceOnUse"
       gradientTransform="matrix(-1.7641336,1.2494427,0.41111976,0.58047529,578.83746,-504.57125)"
       cx="243.86273"
       cy="469.18979"
       fx="243.86273"
       fy="469.18979"
       r="90.442566" />
  </defs>
  <sodipodi:namedview
     id="base"
     pagecolor="#ffffff"
     bordercolor="#666666"
     borderopacity="1.0"
     inkscape:pageopacity="0.0"
     inkscape:pageshadow="2"
     inkscape:zoom="0.94718405"
     inkscape:cx="642.45705"
     inkscape:cy="383.4668"
     inkscape:document-units="mm"
     inkscape:current-layer="layer1"
     inkscape:document-rotation="0"
     showgrid="false"
     inkscape:snap-to-guides="false"
     inkscape:snap-grids="false"
     inkscape:snap-others="false"
     inkscape:object-nodes="false"
     inkscape:snap-nodes="false"
     inkscape:window-width="1500"
     inkscape:window-height="948"
     inkscape:window-x="-6"
     inkscape:window-y="-6"
     inkscape:window-maximized="1"
     fit-margin-top="0"
     fit-margin-left="0"
     fit-margin-right="0"
     fit-margin-bottom="0"
     inkscape:snap-global="false" />
  <metadata
     id="metadata5">
    <rdf:RDF>
      <cc:Work
         rdf:about="">
        <dc:format>image/svg+xml</dc:format>
        <dc:type
           rdf:resource="http://purl.org/dc/dcmitype/StillImage" />
        <dc:title />
      </cc:Work>
    </rdf:RDF>
  </metadata>
  <g
     inkscape:label="Ebene 1"
     inkscape:groupmode="layer"
     id="layer1"
     transform="translate(-60.896221,20.345649)">
    <path
       style="opacity:0.4;fill:url(#linearGradient3324);fill-opacity:1;stroke:none;stroke-width:0.271047px;stroke-linecap:butt;stroke-linejoin:miter;stroke-opacity:1;filter:url(#filter3326)"
       d="m 295.09079,6.9407801 c -4.30359,-0.10658 -19.56823,-0.341 -26.05971,1.39273 -4.64198,1.2780601 -13.51877,6.9545999 -18.51901,9.3387499 -4.75852,2.26886 -5.34032,4.13657 -7.12945,5.83712 -3.66915,3.48748 -6.72393,9.709061 -8.59097,13.85391 -0.79782,1.771189 -2.47842,7.251479 -3.12335,10.156984 -0.56512,2.54567 0.19659,5.00293 -0.23681,8.98731 -0.28926,2.65898 3.17639,2.46295 7.50277,2.95881 6.29973,-5.2804 10.1483,-10.28765 12.58044,-12.27407 4.66534,-4.135233 8.70368,-5.152974 12.72153,-6.931254 0,0 0.39542,0.536771 0.84042,2.00478 0.10191,0.336251 -0.55207,1.051621 -0.44908,1.490321 0.10682,0.45307 0.94631,0.505728 1.01836,0.849818 0.22698,1.08373 -0.40029,0.70361 0.13039,2.00908 0.17599,0.433015 1.06426,0.891005 1.34534,1.493425 0.1638,0.35123 -0.31005,1.11253 -0.0111,1.65546 0.32986,0.60061 1.12812,0.76967 1.58441,1.519 0.43212,0.70969 -0.0746,1.12068 0.43603,1.88493 0.34453,0.51563 0.80775,0.0139 1.17514,0.52493 0.0918,0.12749 -0.0197,1.02874 0.26601,1.53365 0.23761,0.41996 0.857,0.41149 1.10773,0.8787 0.28476,0.53059 0.20919,1.49466 0.35931,1.81859 0.17926,0.38676 0.8528,0.20452 1.11456,0.52439 1.99496,2.43778 4.03501,4.21205 5.37818,3.64368 -1.98705,-5.76815 -3.34122,-12.43574 -4.13132,-15.221005 -1.18248,-4.168597 -3.85062,-8.108738 -4.14043,-9.070509 3.72326,-1.52531 4.95081,-0.56516 7.89601,-1.968349 1.07471,2.51116 1.1005,2.666669 2.31922,4.66549 0.251,0.411679 1.69372,1.255768 1.97698,1.74466 0.41615,0.718209 1.44217,0.400299 2.06568,1.14508 0.28621,0.3419 0.22962,0.947568 0.52756,1.255178 0.45164,0.46622 1.2771,0.60039 1.75063,1.00404 0.52155,0.44461 0.2845,1.294535 0.82466,1.688145 0.41318,0.30103 1.82952,0.55815 2.24931,0.84282 0.39859,0.27031 0.56668,1.24121 0.96797,1.50704 0.3813,0.25257 1.09514,-0.14742 1.47607,0.1099 0.72617,0.49055 0.51017,0.83795 1.22062,1.3911 0.65272,0.50814 0.9881,0.34791 1.61227,0.957 0.28325,0.24902 0.73621,1.13809 1.02637,1.37719 0.42587,0.35094 0.89544,0.25898 1.32963,0.58433 0.34398,0.25774 0.0551,0.74256 1.47289,1.08567 0.41254,0.0999 0.46609,1.03234 1.54728,0.95384 0.48187,-0.0349 0.81177,0.5023 1.20884,0.7271 3.06922,1.73759 5.72152,2.3828 6.42063,0.95219 -3.37087,-4.69957 -4.81031,-7.71305 -9.48189,-11.851245 -3.74776,-3.319848 -4.1798,-6.675939 -6.65199,-10.52868 -1.37694,-3.37448 -2.27768,-0.189309 -5.07925,-3.53486 1.95838,-1.002458 3.90997,-1.893379 5.57221,-3.0549 2.24941,-1.571809 16.31725,-5.949729 16.86299,-7.178419 1.11494,-0.72756 4.42308,-0.67316 6.70556,-1.15771 2.28255,-0.48455 9.31407,-3.08588 11.00716,-3.38226 1.69305,-0.29642 3.89111,-0.24253 7.17038,0.79022 -0.95475,-3.31507 -12.10762,-3.36552 -15.18507,-3.41461 -2.02127,-0.11912 -6.32972,0.73071 -8.97536,0.37373 -1.77913,-0.24008 -5.08811,-2.4905 -7.06462,-3.938761 -0.96253,-0.705289 -2.07068,-1.1054588 -2.98674,-2.6477089 0.61968,-2.09658 -0.0885,-3.53673 1.17246,-5.89969 -1.17606,-1.028 -4.50796,4.583 -6.1271,4.54292 z"
       id="path833-7"
       sodipodi:nodetypes="scssssscccssssssssssssscsccsssssssssscssssscsccsczzccssccss" />
    <path
       style="opacity:0.789474;mix-blend-mode:luminosity;fill:url(#linearGradient3373);fill-opacity:1;stroke:url(#radialGradient3375);stroke-width:0.404052px;stroke-linecap:butt;stroke-linejoin:miter;stroke-opacity:1"
       d="m 189.08868,122.75257 c -0.0548,1.28852 -2.29923,1.9606 -2.92056,3.98401 -0.44169,1.43845 -2.38541,2.35907 -2.53138,2.86111 -0.32704,1.12482 1.08689,2.84157 1.08031,4.25439 -0.006,1.17105 -0.97252,2.16955 -0.88793,3.22038 0.10633,1.321 1.01556,1.8935 1.05389,2.51009 0.0508,0.82046 -1.1292,1.61907 -1.12804,2.43448 0.001,0.91634 1.18081,1.85053 1.1865,2.79452 0.004,0.7393 -1.04049,0.86021 -0.99442,1.63619 0.0428,0.72071 0.77903,0.95679 0.88617,1.72357 0.13245,0.94798 -1.27904,0.48127 -1.00148,1.5233 0.15271,0.5732 0.75619,0.65566 1.45971,1.90555 0.32322,0.57426 -0.21784,0.78771 0.0879,1.56665 0.19033,0.485 0.93204,0.91304 1.30513,1.46009 0.35561,0.52151 -0.11031,1.53521 -0.0357,1.71178 0.69979,1.64957 0.80074,0.48828 1.65892,1.67964 0.3948,0.54798 0.603,1.9714 1.12141,2.88195 0.76478,1.34334 1.84082,2.16743 2.21905,2.28782 0.85321,0.27157 0.26103,-4.60415 1.47988,-15.49087 1.01473,-9.06475 3.28266,-11.60103 3.85629,-14.70189 0.54304,-4.56629 -0.21382,-3.83314 -1.03223,-9.4254"
       id="path3371"
       sodipodi:nodetypes="csscscscssssscccssccc" />
    <path
       style="opacity:0.789474;mix-blend-mode:luminosity;fill:url(#linearGradient3334);fill-opacity:1;stroke:none;stroke-width:0.404052px;stroke-linecap:butt;stroke-linejoin:miter;stroke-opacity:1"
       d="m 202.1485,124.59023 c 0.395,0.0692 1.08078,1.09059 1.45597,1.96796 0.37523,0.87734 -1.52362,1.03442 -0.79521,2.93296 0.72842,1.89854 1.99981,1.25459 2.83149,2.75106 0.42813,0.77048 -0.28092,1.78087 0.37215,2.80901 0.49485,0.77908 2.32076,1.5621 2.86508,2.2946 0.51435,0.69215 0.18357,1.85625 0.68252,2.36116 0.6631,0.67126 2.1343,0.80517 2.71452,1.46189 0.86069,0.97419 -0.71308,1.38733 -0.0121,2.32871 0.71945,0.96453 2.1689,1.00595 2.75234,1.93501 0.92793,1.4776 -1.47338,1.44441 -0.7885,2.82886 0.45542,0.92059 2.56179,1.03992 3.75667,2.47024 0.612,0.73265 -0.26781,1.41724 0.34766,2.51241 0.72926,1.29768 1.35354,0.81094 1.78575,2.24445 0.33539,1.11239 -1.33629,0.56646 -0.63752,1.67614 0.34789,0.55251 1.47022,0.66374 1.98783,2.03113 0.44189,1.16712 2.92273,3.19792 3.2988,3.7363 2.22236,3.18103 6.71893,4.64519 7.11117,3.80026 1.98764,-4.28203 -5.78635,-13.28981 -5.89957,-27.0499 -0.0647,-7.82651 -7.56232,-14.53183 -5.67275,-14.48589 3.33391,0.0811 6.75099,0.0594 10.2964,-0.0767 5.9133,-0.22709 18.77719,-1.67122 27.27535,-5.05583 6.93432,-2.76179 14.25927,-7.89688 18.92787,-15.96991 4.81765,-8.330823 5.81954,-7.789593 10.58757,-10.080503 4.76807,-2.290902 5.11185,-1.13049 8.1571,-0.97229 3.04527,0.15822 6.84272,1.86246 9.80909,2.2214 2.96632,0.35895 5.25126,-0.0517 7.85897,0.14453 2.60769,0.19608 6.90895,3.250579 7.75993,1.02859 0.85102,-2.22199 -2.11969,-1.69081 -5.87777,-3.5921 -3.16035,-1.598902 -7.10112,-1.080312 -8.69611,-1.559812 -3.49163,-1.0497 -7.07912,-2.71716 -10.01318,-3.62024 -2.93405,-0.903027 -9.11596,-0.854097 -9.11596,-0.854097 -5.81027,-0.54438 -12.43305,1.820487 -12.43305,1.820487 l 0.001,-2.9e-4 c 0,0 -8.65493,1.7953 -14.72179,-0.17043 -3.28052,-1.062937 -5.11044,-1.796577 -4.40598,-8.245984 -2.85925,0.110763 -4.22343,8.468384 -7.25304,8.798324 -8.3171,0.90575 -16.69473,4.584832 -21.94039,4.575332 -13.61347,-0.0244 -33.91718,-1.674032 -33.91718,-1.674032 0,0 -3.99026,-1.07849 -10.53719,-1.62473 -4.7631,-0.39738 -8.24995,4.069382 -14.73045,4.516692 -9.11138,0.62885 -10.82157,3.448649 -20.18123,5.521463 -1.78234,0.3947 -3.43358,2.00206 -4.39974,2.47601 -4.10727,2.01489 -1.33494,3.65939 0.71259,8.06969 1.34509,2.89726 8.4588,3.40196 13.88672,4.37934 4.82051,0.868 12.17398,4.90577 16.17856,5.61191"
       id="path833" />
    <g
       id="g83"
       transform="matrix(0.4637746,0,0,0.4637746,100.16478,-11.861929)">
      <g
         id="g59">
        <path
           fill="#1378be"
           d="m 23.3,135.1 c 3,1.7 6.3,2.6 10,2.6 6.5,0 11.2,-2.1 14.1,-6.4 v 5.4 H 58.6 V 80.3 H 47.1 l 0.1,20 C 45.8,98.4 44,97.5 41.7,96.5 39.4,95.5 36.9,95 34,95 c -3.9,0 -7.4,1 -10.5,2.9 -3.1,1.9 -5.5,4.5 -7.2,7.7 -1.7,3.2 -2.6,7.4 -2.6,11.3 0,4.1 0.9,8.2 2.6,11.4 1.7,3 4,5.1 7,6.8 z m 5.1,-26.3 c 2.1,-2.1 4.8,-3.2 8.1,-3.2 3.3,0 6,1.1 8.1,3.2 2.1,2.1 3.1,4.8 3.1,8.2 0,3.4 -1.1,6.1 -3.2,8.2 -2.1,2.1 -4.8,3.2 -8.1,3.2 -3.3,0 -6,-1.1 -8.1,-3.2 -2.1,-2.1 -3.2,-4.9 -3.2,-8.2 0.2,-3.3 1.2,-6 3.3,-8.2 z"
           id="path51" />
        <path
           fill="#1378be"
           d="m 193.6,99.3 c -3,-1.7 -6.3,-2.6 -10,-2.6 -6.5,0 -11.2,2.1 -14.1,6.4 v -5.4 h -11.2 v 56.4 h 11.6 l -0.1,-20 c 1.4,1.9 3.2,2.8 5.5,3.8 2.3,1 4.8,1.5 7.7,1.5 3.9,0 7.4,-1 10.5,-2.9 3.1,-1.9 5.5,-4.5 7.2,-7.7 1.7,-3.2 2.6,-7.4 2.6,-11.3 0,-4.1 -0.9,-8.2 -2.6,-11.4 -1.8,-3 -4.2,-5.1 -7.1,-6.8 z m -5.1,26.3 c -2.1,2.1 -4.8,3.2 -8.1,3.2 -3.3,0 -6,-1.1 -8.1,-3.2 -2.1,-2.1 -3.1,-4.8 -3.1,-8.2 0,-3.4 1.1,-6.1 3.2,-8.2 2.1,-2.1 4.8,-3.2 8.1,-3.2 3.3,0 6,1.1 8.1,3.2 2.1,2.1 3.2,4.9 3.2,8.2 -0.2,3.3 -1.2,6.1 -3.3,8.2 z"
           id="path53" />
        <path
           fill="#1378be"
           d="m 99,125 c -2,2.1 -5.2,3.9 -9.9,3.5 -9.1,-0.8 -11.1,-6 -11.9,-8.9 v 0 c 0,0 0,0 0,0 h 30.5 c 0.3,-1.4 0.4,-3 0.4,-4.8 0,-4.1 -0.9,-7.7 -2.6,-10.7 -1.7,-3 -4.1,-5.3 -7.2,-6.9 -3.1,-1.6 -6.7,-2.4 -10.7,-2.4 -4.4,0 -8.3,0.9 -11.6,2.8 -3.3,1.9 -5.9,4.4 -7.7,7.7 -1.8,3.3 -2.7,6.9 -2.7,11 0,1.2 0.1,2.3 0.2,3.3 0,0 0,0 0,0 1.9,12.5 12.7,17.9 23.2,18.1 8.4,0.1 13.1,-3.4 14.7,-5 z M 80.5,105.4 c 1.8,-1.5 4,-2.3 6.7,-2.3 2.8,0 5,0.8 6.7,2.3 1.7,1.5 2.6,3.7 2.9,6.5 H 77.1 c 0.6,-2.8 1.7,-5 3.4,-6.5 z"
           id="path55" />
        <path
           fill="#1378be"
           d="m 144.7,125 c -2,2.1 -5.2,3.9 -9.9,3.5 -9.1,-0.8 -11.1,-6 -11.9,-8.9 v 0 c 0,0 0,0 0,0 h 30.5 c 0.3,-1.4 0.4,-3 0.4,-4.8 0,-4.1 -0.9,-7.7 -2.6,-10.7 -1.7,-3 -4.1,-5.3 -7.2,-6.9 -3.1,-1.6 -6.7,-2.4 -10.7,-2.4 -4.4,0 -8.3,0.9 -11.6,2.8 -3.3,1.9 -5.9,4.4 -7.7,7.7 -1.8,3.3 -2.7,6.9 -2.7,11 0,1.2 0.1,2.3 0.2,3.3 0,0 0,0 0,0 1.9,12.5 12.7,17.9 23.2,18.1 8.4,0.1 13.1,-3.4 14.7,-5 z m -18.5,-19.6 c 1.8,-1.5 4,-2.3 6.7,-2.3 2.8,0 5,0.8 6.7,2.3 1.7,1.5 2.6,3.7 2.9,6.5 h -19.7 c 0.5,-2.8 1.7,-5 3.4,-6.5 z"
           id="path57" />
      </g>
      <g
         id="g65">
        <path
           fill="#4e4d4d"
           d="M 162.7,35.8 C 138.8,34.9 131.3,26 131.3,26 c 0,0 0.6,10.8 17.2,23.6 16.6,12.7 41.5,10.8 53.4,18 12,7.2 18.1,22.2 18.1,22.2 0,0 -5,-33 -14.4,-41.7 -9.3,-8.9 -19.2,-11.5 -42.9,-12.3 z m 116,-21.5 c 0,0 -6.2,10.1 -29.5,14.8 -23.3,4.7 -32.9,8.9 -40.4,19 3.5,4 6.5,10.6 9.2,20.4 8,-9.1 34.2,-13.1 48.2,-28.3 14,-15.1 12.5,-25.9 12.5,-25.9 z"
           id="path61" />
        <path
           fill="#4e4d4d"
           d="m 213.8,117.9 c -0.2,-4.4 3.7,-7.7 8.2,-7.7 4.5,0 8.2,3.3 8.2,7.7 0,4.2 -3.5,7.7 -8.2,7.7 -4.6,0 -8.2,-3.3 -8.2,-7.7"
           id="path63" />
      </g>
      <g
         id="g81">
        <path
           fill="#1378be"
           d="m 440.7,99.3 c -3,-1.7 -6.3,-2.6 -10,-2.6 -6.5,0 -11.2,2.1 -14.1,6.4 v -5.4 h -11.2 v 56.4 H 417 l -0.1,-20 c 1.4,1.9 3.2,2.8 5.5,3.8 2.3,1 4.8,1.5 7.7,1.5 3.9,0 7.4,-1 10.5,-2.9 3.1,-1.9 5.5,-4.5 7.2,-7.7 1.7,-3.2 2.6,-7.4 2.6,-11.3 0,-4.1 -0.9,-8.2 -2.6,-11.4 -1.8,-3 -4.1,-5.1 -7.1,-6.8 z m -5.1,26.3 c -2.1,2.1 -4.8,3.2 -8.1,3.2 -3.3,0 -6,-1.1 -8.1,-3.2 -2.1,-2.1 -3.1,-4.8 -3.1,-8.2 0,-3.4 1.1,-6.1 3.2,-8.2 2.1,-2.1 4.8,-3.2 8.1,-3.2 3.3,0 6,1.1 8.1,3.2 2.1,2.1 3.2,4.9 3.2,8.2 -0.2,3.3 -1.2,6.1 -3.3,8.2 z"
           id="path67" />
        <path
           fill="#1378be"
           d="m 258.2,138.3 c -3.2,0 -6.2,-0.3 -9.1,-1 -2.9,-0.7 -5.1,-1.6 -6.6,-2.7 l 1.4,-8.7 c 1.9,1.2 4.1,2.1 6.6,2.9 2.5,0.7 4.9,1.1 7.2,1.1 4.7,0 7,-1.1 7,-3.3 0,-1.2 -0.5,-2.1 -1.5,-2.7 -1,-0.6 -3.1,-1.3 -6.2,-2.2 -5,-1.3 -8.5,-2.9 -10.6,-4.9 -2.1,-2 -3.2,-4.7 -3.2,-8 0,-3.8 1.5,-6.7 4.6,-8.9 3,-2.2 7.2,-3.2 12.5,-3.2 2.6,0 5.2,0.3 7.8,0.9 2.6,0.6 4.7,1.3 6.4,2.2 l -1.3,8.5 c -1.7,-0.9 -3.7,-1.7 -5.9,-2.2 -2.2,-0.5 -4.4,-0.8 -6.4,-0.8 -4,0 -6,1 -6,3 0,1.1 0.5,2 1.4,2.7 1,0.6 2.9,1.4 5.8,2.1 5.3,1.4 9,3.1 11.2,5.1 2.2,2 3.3,4.7 3.3,8.1 0,3.8 -1.6,6.8 -4.8,9 -3.5,1.9 -8,3 -13.6,3 z"
           id="path69" />
        <path
           fill="#1378be"
           d="m 312.3,131.9 v 4.5 h 11.3 V 96.3 h -11 v 5.3 c -2.8,-4.2 -7.4,-6.2 -13.7,-6.2 -3.6,0 -6.9,0.8 -9.8,2.5 -2.9,1.7 -5.2,3.7 -6.9,6.8 -1.7,3.1 -2.5,7 -2.5,11.1 0,3.7 0.9,7.9 2.5,11 1.7,3.1 4,5.6 7,7.5 3,1.9 6.5,2.8 10.2,2.8 2.8,0 5.3,-0.5 7.5,-1.5 2.2,-0.9 4,-1.9 5.4,-3.7 z m -10.4,-5.2 c -3.3,0 -5.9,-1 -7.9,-3.1 -2,-2.1 -3.1,-4.7 -3.1,-8 0,-3.3 1,-6 3.1,-8.1 2.1,-2.1 4.7,-3.1 7.9,-3.1 3.2,0 5.8,1 7.9,3.1 2.1,2.1 3.1,4.8 3.1,8.1 0,3.2 -1,5.9 -3.1,8 -2,2 -4.7,3.1 -7.9,3.1 z"
           id="path71" />
        <path
           fill="#1378be"
           d="m 332,97.1 h 11.1 l 0.1,4.9 c 1.3,-2 3,-3.5 5.2,-4.6 2.2,-1 4.7,-1.6 7.7,-1.6 6.1,0 10.5,2.4 12.9,7.1 1.2,-2.1 3,-3.8 5.4,-5.1 2.5,-1.3 5.2,-1.9 8.1,-1.9 5,0 8.9,1.4 11.5,4.3 2.7,2.8 4,7 4,12.5 v 23.9 h -11.5 v -21.9 c 0,-3.2 -0.6,-5.5 -1.8,-7 -1.2,-1.5 -3.1,-2.2 -5.6,-2.2 -2.5,0 -4.6,0.9 -6,2.6 -1.5,1.8 -2.2,4.2 -2.2,7.3 v 21.2 h -11.5 v -21.9 c 0,-3.2 -0.6,-5.5 -1.8,-7 -1.2,-1.5 -3.1,-2.2 -5.7,-2.2 -2.6,0 -4.6,0.9 -6.1,2.6 -1.5,1.8 -2.2,4.2 -2.2,7.2 v 21.3 H 332 Z"
           id="path73" />
        <path
           fill="#1378be"
           d="m 456.7,81.2 h 11.6 v 55.5 h -11.6 z"
           id="path75" />
        <path
           fill="#1378be"
           d="m 508.1,125 c -2,2.1 -5.2,3.9 -9.9,3.5 -9.1,-0.8 -11.1,-6 -11.9,-8.9 v 0 c 0,0 0,0 0,0 h 30.5 c 0.3,-1.4 0.4,-3 0.4,-4.8 0,-4.1 -0.9,-7.7 -2.6,-10.7 -1.7,-3 -4.1,-5.3 -7.2,-6.9 -3.1,-1.6 -6.7,-2.4 -10.7,-2.4 -4.4,0 -8.3,0.9 -11.6,2.8 -3.3,1.9 -5.9,4.4 -7.7,7.7 -1.8,3.3 -2.7,6.9 -2.7,11 0,1.2 0.1,2.3 0.2,3.3 0,0 0,0 0,0 1.9,12.5 12.7,17.9 23.2,18.1 8.4,0.1 13.1,-3.4 14.7,-5 z m -18.5,-19.6 c 1.8,-1.5 4,-2.3 6.7,-2.3 2.8,0 5,0.8 6.7,2.3 1.7,1.5 2.6,3.7 2.9,6.5 h -19.7 c 0.5,-2.8 1.7,-5 3.4,-6.5 z"
           id="path77" />
        <path
           fill="#1378be"
           d="m 521.8,96.5 h 11.3 l 0.1,6.6 c 1.2,-2.4 2.8,-4.2 4.8,-5.4 2,-1.3 4.3,-1.9 7,-1.9 1.8,0 3.5,0.3 5,0.9 l -1,10.3 c -1.7,-0.6 -3.5,-0.9 -5.2,-0.9 -3.2,0 -5.7,1.1 -7.5,3.2 -1.8,2.2 -2.7,5.2 -2.7,9.1 v 18.3 H 521.9 V 96.5 Z"
           id="path79" />
      </g>
    </g>
    <circle
       id="path520"
       style="fill:#1378be;stroke:#1378be;stroke-width:0.264583"
       cx="230.87965"
       cy="80.225914"
       r="0.092253536" />
    <circle
       id="path522"
       style="fill:#1378be;stroke:#1378be;stroke-width:0.264583"
       cx="230.87965"
       cy="80.225914"
       r="0.092253536" />
    <text
       xml:space="preserve"
       style="font-style:normal;font-variant:normal;font-weight:normal;font-stretch:normal;font-size:10.5833px;line-height:1.25;font-family:Arial;-inkscape-font-specification:Arial;letter-spacing:0px;word-spacing:0px;fill:#1378be;fill-opacity:1;stroke:none;stroke-width:0.264583"
       x="133.83162"
       y="73.862633"
       id="text526"><tspan
         sodipodi:role="line"
         id="tspan524"
         x="133.83162"
         y="73.862633"
         style="font-style:normal;font-variant:normal;font-weight:normal;font-stretch:normal;font-family:Arial;-inkscape-font-specification:Arial;fill:#1378be;fill-opacity:1;stroke-width:0.264583">a stubbing framework for compound tests</tspan></text>
  </g>
  <style
     type="text/css"
     id="style892">
	.st0{fill:#4D4D4D;stroke:#4D4D4D;stroke-width:0.2919;stroke-linejoin:round;stroke-miterlimit:11.3386;}
	.st1{fill:#4D4D4D;stroke:#4D4D4D;stroke-width:0.2915;stroke-linejoin:round;stroke-miterlimit:11.3386;}
	.st2{fill:#37ABC8;}
	.st3{enable-background:new    ;}
	.st4{fill:#4D4D4D;}
</style>
</svg>
