<?xml version="1.0" encoding="UTF-8" standalone="no"?>
<svg
   xmlns:dc="http://purl.org/dc/elements/1.1/"
   xmlns:cc="http://creativecommons.org/ns#"
   xmlns:rdf="http://www.w3.org/1999/02/22-rdf-syntax-ns#"
   xmlns:svg="http://www.w3.org/2000/svg"
   xmlns="http://www.w3.org/2000/svg"
   xmlns:xlink="http://www.w3.org/1999/xlink"
   xmlns:sodipodi="http://sodipodi.sourceforge.net/DTD/sodipodi-0.dtd"
   xmlns:inkscape="http://www.inkscape.org/namespaces/inkscape"
   width="339.96686mm"
   height="200.00513mm"
   viewBox="0 0 339.96687 200.00513"
   version="1.1"
   id="svg8"
   inkscape:version="1.0.1 (3bc2e813f5, 2020-09-07)"
   sodipodi:docname="Whale.svg">
  <defs
     id="defs2">
    <linearGradient
       inkscape:collect="always"
       id="linearGradient3342-9">
      <stop
         style="stop-color:#000000;stop-opacity:1;"
         offset="0"
         id="stop3338" />
      <stop
         style="stop-color:#000000;stop-opacity:0"
         offset="1"
         id="stop3340" />
    </linearGradient>
    <linearGradient
       inkscape:collect="always"
       id="linearGradient3322">
      <stop
         style="stop-color:#000000;stop-opacity:1;"
         offset="0"
         id="stop3318" />
      <stop
         style="stop-color:#000000;stop-opacity:0;"
         offset="1"
         id="stop3320" />
    </linearGradient>
    <linearGradient
       inkscape:collect="always"
       id="linearGradient3310">
      <stop
         style="stop-color:#000000;stop-opacity:1;"
         offset="0"
         id="stop3306" />
      <stop
         style="stop-color:#000000;stop-opacity:0;"
         offset="1"
         id="stop3308" />
    </linearGradient>
    <linearGradient
       inkscape:collect="always"
       id="linearGradient3295">
      <stop
         style="stop-color:#000000;stop-opacity:1;"
         offset="0"
         id="stop3299" />
      <stop
         style="stop-color:#000000;stop-opacity:0;"
         offset="1"
         id="stop3301" />
    </linearGradient>
    <radialGradient
       inkscape:collect="always"
       xlink:href="#linearGradient3295"
       id="radialGradient3304"
       cx="200.25114"
       cy="119.94785"
       fx="200.25114"
       fy="119.94785"
       r="90.442566"
       gradientTransform="matrix(-0.85137836,-0.02089593,0.01182395,-0.48175212,406.96661,177.36052)"
       gradientUnits="userSpaceOnUse" />
    <linearGradient
       inkscape:collect="always"
       xlink:href="#linearGradient3322"
       id="linearGradient3324"
       x1="295.48236"
       y1="111.42689"
       x2="428.04489"
       y2="56.620338"
       gradientUnits="userSpaceOnUse"
       gradientTransform="translate(2.1381554,-22.45064)" />
    <filter
       inkscape:collect="always"
       style="color-interpolation-filters:sRGB"
       id="filter3326"
       x="-0.0036408578"
       width="1.0072817"
       y="-0.0062482967"
       height="1.0124966">
      <feGaussianBlur
         inkscape:collect="always"
         stdDeviation="0.15601586"
         id="feGaussianBlur3328" />
    </filter>
    <linearGradient
       inkscape:collect="always"
       xlink:href="#linearGradient3310"
       id="linearGradient3332"
       x1="67.321854"
       y1="132.39987"
       x2="248.20699"
       y2="132.39987"
       gradientUnits="userSpaceOnUse" />
    <linearGradient
       inkscape:collect="always"
       xlink:href="#linearGradient3342-9"
       id="linearGradient3334"
       gradientUnits="userSpaceOnUse"
       x1="198.47958"
       y1="156.21236"
       x2="30.112679"
       y2="78.857864"
       gradientTransform="matrix(-1,0,0,1,410.14247,3.7417733)" />
    <radialGradient
       inkscape:collect="always"
       xlink:href="#linearGradient3342-9"
       id="radialGradient3336"
       gradientUnits="userSpaceOnUse"
       gradientTransform="matrix(0.60900876,0.1309988,0.14958399,-0.69541042,106.25167,365.0855)"
       cx="243.86273"
       cy="469.18979"
       fx="243.86273"
       fy="469.18979"
       r="90.442566" />
    <linearGradient
       inkscape:collect="always"
       xlink:href="#linearGradient3342-9"
       id="linearGradient3373"
       gradientUnits="userSpaceOnUse"
       x1="227.65511"
       y1="133.104"
       x2="231.76295"
       y2="196.40845"
       gradientTransform="matrix(-0.99427925,-0.10681184,-0.10681184,0.99427925,454.18175,27.502483)" />
    <radialGradient
       inkscape:collect="always"
       xlink:href="#linearGradient3342-9"
       id="radialGradient3375"
       gradientUnits="userSpaceOnUse"
       gradientTransform="matrix(-1.7641336,1.2494427,0.41111976,0.58047529,599.63194,-492.0161)"
       cx="243.86273"
       cy="469.18979"
       fx="243.86273"
       fy="469.18979"
       r="90.442566" />
  </defs>
  <sodipodi:namedview
     id="base"
     pagecolor="#ffffff"
     bordercolor="#666666"
     borderopacity="1.0"
     inkscape:pageopacity="0.0"
     inkscape:pageshadow="2"
     inkscape:zoom="0.49497475"
     inkscape:cx="707.43421"
     inkscape:cy="503.43517"
     inkscape:document-units="mm"
     inkscape:current-layer="layer1"
     inkscape:document-rotation="0"
     showgrid="false"
     inkscape:snap-to-guides="false"
     inkscape:snap-grids="false"
     inkscape:snap-others="false"
     inkscape:object-nodes="false"
     inkscape:snap-nodes="false"
     inkscape:window-width="1500"
     inkscape:window-height="948"
     inkscape:window-x="-6"
     inkscape:window-y="-6"
     inkscape:window-maximized="1"
     fit-margin-top="0"
     fit-margin-left="0"
     fit-margin-right="0"
     fit-margin-bottom="0"
     inkscape:snap-global="false" />
  <metadata
     id="metadata5">
    <rdf:RDF>
      <cc:Work
         rdf:about="">
        <dc:format>image/svg+xml</dc:format>
        <dc:type
           rdf:resource="http://purl.org/dc/dcmitype/StillImage" />
        <dc:title></dc:title>
      </cc:Work>
    </rdf:RDF>
  </metadata>
  <g
     inkscape:label="Ebene 1"
     inkscape:groupmode="layer"
     id="layer1"
     transform="translate(-60.896221,20.345649)">
    <path
       style="opacity:0.4;fill:url(#linearGradient3324);fill-opacity:1;stroke:#000000;stroke-width:0.271047px;stroke-linecap:butt;stroke-linejoin:miter;stroke-opacity:1;filter:url(#filter3326)"
       d="m 360.47028,40.247261 c -4.30359,-0.10658 -19.56823,-0.341 -26.05971,1.39273 -4.64198,1.27806 -13.51877,6.9546 -18.51901,9.33875 -4.75852,2.26886 -5.34032,4.13657 -7.12945,5.83712 -3.66915,3.48748 -6.72393,9.709061 -8.59097,13.85391 -0.79782,1.771189 -2.47842,7.251479 -3.12335,10.156984 -0.56512,2.54567 0.19659,5.00293 -0.23681,8.98731 -0.28926,2.65898 3.17639,2.46295 7.50277,2.95881 6.29973,-5.2804 10.1483,-10.28765 12.58044,-12.27407 4.66534,-4.135233 8.70368,-5.152974 12.72153,-6.931254 0,0 0.39542,0.536771 0.84042,2.00478 0.10191,0.336251 -0.55207,1.051621 -0.44908,1.490321 0.10682,0.45307 0.94631,0.505728 1.01836,0.849818 0.22698,1.08373 -0.40029,0.70361 0.13039,2.00908 0.17599,0.433015 1.06426,0.891005 1.34534,1.493425 0.1638,0.35123 -0.31005,1.11253 -0.0111,1.65546 0.32986,0.60061 1.12812,0.76967 1.58441,1.519 0.43212,0.70969 -0.0746,1.12068 0.43603,1.88493 0.34453,0.51563 0.80775,0.0139 1.17514,0.52493 0.0918,0.12749 -0.0197,1.02874 0.26601,1.53365 0.23761,0.41996 0.857,0.41149 1.10773,0.8787 0.28476,0.53059 0.20919,1.49466 0.35931,1.81859 0.17926,0.38676 0.8528,0.20452 1.11456,0.52439 1.99496,2.43778 4.03501,4.21205 5.37818,3.64368 -1.98705,-5.76815 -3.34122,-12.43574 -4.13132,-15.221005 -1.18248,-4.168597 -3.85062,-8.108738 -4.14043,-9.070509 3.72326,-1.52531 4.95081,-0.56516 7.89601,-1.968349 1.07471,2.51116 1.1005,2.666669 2.31922,4.66549 0.251,0.411679 1.69372,1.255768 1.97698,1.74466 0.41615,0.718209 1.44217,0.400299 2.06568,1.14508 0.28621,0.3419 0.22962,0.947568 0.52756,1.255178 0.45164,0.46622 1.2771,0.60039 1.75063,1.00404 0.52155,0.44461 0.2845,1.294535 0.82466,1.688145 0.41318,0.30103 1.82952,0.55815 2.24931,0.84282 0.39859,0.27031 0.56668,1.24121 0.96797,1.50704 0.3813,0.25257 1.09514,-0.14742 1.47607,0.1099 0.72617,0.49055 0.51017,0.83795 1.22062,1.3911 0.65272,0.50814 0.9881,0.34791 1.61227,0.957 0.28325,0.24902 0.73621,1.13809 1.02637,1.37719 0.42587,0.35094 0.89544,0.25898 1.32963,0.58433 0.34398,0.25774 0.0551,0.74256 1.47289,1.08567 0.41254,0.0999 0.46609,1.03234 1.54728,0.95384 0.48187,-0.0349 0.81177,0.5023 1.20884,0.7271 3.06922,1.73759 5.72152,2.3828 6.42063,0.95219 -3.37087,-4.69957 -4.81031,-7.71305 -9.48189,-11.851245 -3.74776,-3.319848 -4.1798,-6.675939 -6.65199,-10.52868 -1.37694,-3.37448 -2.27768,-0.189309 -5.07925,-3.53486 1.95838,-1.002458 3.90997,-1.893379 5.57221,-3.0549 2.24941,-1.571809 16.31725,-5.949729 16.86299,-7.178419 1.11494,-0.72756 4.42308,-0.67316 6.70556,-1.15771 2.28255,-0.48455 9.31407,-3.08588 11.00716,-3.38226 1.69305,-0.29642 3.89111,-0.24253 7.17038,0.79022 -0.95475,-3.31507 -12.10762,-3.36552 -15.18507,-3.41461 -2.02127,-0.11912 -6.32972,0.73071 -8.97536,0.37373 -1.77913,-0.24008 -5.08811,-2.4905 -7.06462,-3.93876 -0.96253,-0.70529 -2.07068,-1.10546 -2.98674,-2.64771 0.61968,-2.09658 -0.0885,-3.53673 1.17246,-5.89969 -1.17606,-1.028 -4.50796,4.583 -6.1271,4.54292 z"
       id="path833-7"
       sodipodi:nodetypes="scssssscccssssssssssssscsccsssssssssscssssscsccsczzccssccss" />
    <path
       style="opacity:0.789474;mix-blend-mode:luminosity;fill:url(#linearGradient3373);fill-opacity:1;stroke:url(#radialGradient3375);stroke-width:0.404052px;stroke-linecap:butt;stroke-linejoin:miter;stroke-opacity:1"
       d="m 209.88316,135.30772 c -0.0548,1.28852 -2.29923,1.9606 -2.92056,3.98401 -0.44169,1.43845 -2.38541,2.35907 -2.53138,2.86111 -0.32704,1.12482 1.08689,2.84157 1.08031,4.25439 -0.006,1.17105 -0.97252,2.16955 -0.88793,3.22038 0.10633,1.321 1.01556,1.8935 1.05389,2.51009 0.0508,0.82046 -1.1292,1.61907 -1.12804,2.43448 0.001,0.91634 1.18081,1.85053 1.1865,2.79452 0.004,0.7393 -1.04049,0.86021 -0.99442,1.63619 0.0428,0.72071 0.77903,0.95679 0.88617,1.72357 0.13245,0.94798 -1.27904,0.48127 -1.00148,1.5233 0.15271,0.5732 0.75619,0.65566 1.45971,1.90555 0.32322,0.57426 -0.21784,0.78771 0.0879,1.56665 0.19033,0.485 0.93204,0.91304 1.30513,1.46009 0.35561,0.52151 -0.11031,1.53521 -0.0357,1.71178 0.69979,1.64957 0.80074,0.48828 1.65892,1.67964 0.3948,0.54798 0.603,1.9714 1.12141,2.88195 0.76478,1.34334 1.84082,2.16743 2.21905,2.28782 0.85321,0.27157 0.26103,-4.60415 1.47988,-15.49087 1.01473,-9.06475 3.28266,-11.60103 3.85629,-14.70189 0.54304,-4.56629 -0.21382,-3.83314 -1.03223,-9.4254"
       id="path3371"
       sodipodi:nodetypes="csscscscssssscccssccc" />
    <path
       style="opacity:0.789474;mix-blend-mode:luminosity;fill:url(#linearGradient3334);fill-opacity:1;stroke:url(#radialGradient3336);stroke-width:0.404052px;stroke-linecap:butt;stroke-linejoin:miter;stroke-opacity:1"
       d="m 223.64749,137.14538 c 0.395,0.0692 1.08078,1.09059 1.45597,1.96796 0.37523,0.87734 -1.52362,1.03442 -0.79521,2.93296 0.72842,1.89854 1.99981,1.25459 2.83149,2.75106 0.42813,0.77048 -0.28092,1.78087 0.37215,2.80901 0.49485,0.77908 2.32076,1.5621 2.86508,2.2946 0.51435,0.69215 0.18357,1.85625 0.68252,2.36116 0.6631,0.67126 2.1343,0.80517 2.71452,1.46189 0.86069,0.97419 -0.71308,1.38733 -0.0121,2.32871 0.71945,0.96453 2.1689,1.00595 2.75234,1.93501 0.92793,1.4776 -1.47338,1.44441 -0.7885,2.82886 0.45542,0.92059 2.56179,1.03992 3.75667,2.47024 0.612,0.73265 -0.26781,1.41724 0.34766,2.51241 0.72926,1.29768 1.35354,0.81094 1.78575,2.24445 0.33539,1.11239 -1.33629,0.56646 -0.63752,1.67614 0.34789,0.55251 1.47022,0.66374 1.98783,2.03113 0.44189,1.16712 2.92273,3.19792 3.2988,3.7363 2.22236,3.18103 6.71893,4.64519 7.11117,3.80026 1.98764,-4.28203 -5.78635,-13.28981 -5.89957,-27.0499 -0.0647,-7.82651 -7.56232,-14.53183 -5.67275,-14.48589 3.33391,0.0811 6.75099,0.0594 10.2964,-0.0767 5.9133,-0.22709 18.77719,-1.67122 27.27535,-5.05583 6.93432,-2.76179 14.25927,-7.89688 18.92787,-15.96991 4.81765,-8.33082 5.81954,-7.78959 10.58757,-10.0805 4.76807,-2.2909 5.11185,-1.13049 8.1571,-0.97229 3.04527,0.15822 6.84272,1.86246 9.80909,2.2214 2.96632,0.35895 5.25126,-0.0517 7.85897,0.14453 2.60769,0.19608 6.90895,3.25058 7.75993,1.02859 0.85102,-2.22199 -2.11969,-1.69081 -5.87777,-3.5921 -3.16035,-1.5989 -7.10112,-1.08031 -8.69611,-1.55981 -3.49163,-1.0497 -7.07912,-2.71716 -10.01318,-3.62024 -2.93405,-0.903027 -9.11596,-0.854097 -9.11596,-0.854097 -5.81027,-0.54438 -12.43305,1.820487 -12.43305,1.820487 l 0.001,-2.9e-4 c 0,0 -8.65493,1.7953 -14.72179,-0.17043 -3.28052,-1.062937 -5.11044,-1.796577 -4.40598,-8.245984 -2.85925,0.110763 -4.22343,8.468384 -7.25304,8.798324 -8.3171,0.90575 -16.69473,4.58483 -21.94039,4.57533 -13.61347,-0.0244 -33.91718,-1.67403 -33.91718,-1.67403 0,0 -3.99026,-1.07849 -10.53719,-1.62473 -4.7631,-0.39738 -8.24995,4.06938 -14.73045,4.51669 -9.11138,0.62885 -10.82157,3.44865 -20.18123,5.52146 -1.78234,0.3947 -3.43358,2.00206 -4.39974,2.47601 -4.10727,2.01489 -1.33494,3.65939 0.71259,8.06969 1.34509,2.89726 8.4588,3.40196 13.88672,4.37934 4.82051,0.868 12.17398,4.90577 16.17856,5.61191"
       id="path833" />
    <g
       id="g937"
       transform="matrix(1.0047186,0,0,1.0047186,83.619114,41.420252)">
      <path
         id="path12-2-8-3"
         class="st0"
         d="m 73.068502,-39.807883 c -5,-5 -10.3,-6.5 -23,-7 -12.7,-0.5 -16.7,-5.6 -16.7,-5.6 0,0 0.3,6.2 9.1,13.5 8.9,7.299997 22.2,6.199997 28.6,10.299997 6.4,4.1 9.7,12.8 9.7,12.8 0,0 -2.7,-19 -7.7,-23.999997 z" />
      <path
         id="path12-5-4-5-9"
         class="st1"
         d="m 74.768502,-39.707883 c 4,-5.8 9.1,-8.2 21.6,-10.9 12.499998,-2.7 15.799998,-8.5 15.799998,-8.5 0,0 0.8,6.2 -6.7,14.9 -7.499998,8.699997 -21.499998,10.999997 -25.799998,16.199997 -1.4,-5.6 -3,-9.399997 -4.9,-11.699997 z" />
      <g
         id="text912-8-9-9"
         transform="matrix(0.81749016,0,0,0.93127825,-14.94827,-116.89625)">
	<path
   id="path1780"
   class="st2"
   d="m 131.1,135.9 c 1.6,1 4.8,1.9 7.9,1.9 7.5,0 11,-4.1 11,-8.8 0,-4.2 -2.4,-6.8 -7.5,-8.7 -3.9,-1.5 -5.6,-2.6 -5.6,-4.8 0,-1.7 1.4,-3.5 4.8,-3.5 2.7,0 4.8,0.8 5.8,1.4 l 1.3,-4.3 c -1.5,-0.8 -3.8,-1.5 -7,-1.5 -6.4,0 -10.4,3.6 -10.4,8.4 0,4.2 3.1,6.8 7.9,8.5 3.7,1.3 5.2,2.6 5.2,4.9 0,2.4 -1.9,4 -5.3,4 -2.7,0 -5.4,-0.9 -7.1,-1.9 z" />

	<path
   id="path1782"
   class="st2"
   d="m 171.3,124.6 c 0,-4.6 -1.9,-8.9 -8.7,-8.9 -3.3,0 -6.1,0.9 -7.6,1.9 l 1,3.5 c 1.4,-0.9 3.6,-1.6 5.7,-1.6 3.7,0 4.3,2.3 4.3,3.7 v 0.3 c -7.8,0 -12.5,2.7 -12.5,8 0,3.2 2.4,6.3 6.6,6.3 2.8,0 5,-1.2 6.2,-2.8 h 0.1 l 0.4,2.3 h 4.8 c -0.3,-1.3 -0.3,-3.2 -0.3,-5.1 z m -5.2,5.3 c 0,0.4 0,0.8 -0.1,1.2 -0.5,1.5 -2,2.9 -4.2,2.9 -1.7,0 -3,-1 -3,-3 0,-3.2 3.6,-4 7.4,-3.9 v 2.8 z" />

	<path
   id="path1784"
   class="st2"
   d="m 176.9,137.3 h 5.2 v -12.5 c 0,-0.6 0.1,-1.2 0.3,-1.8 0.5,-1.4 1.9,-3 3.9,-3 2.5,0 3.6,2.1 3.6,5 v 12.2 h 5.2 v -12.7 c 0,-0.6 0.1,-1.3 0.3,-1.8 0.6,-1.5 1.9,-2.8 3.7,-2.8 2.6,0 3.8,2.1 3.8,5.6 v 11.7 h 5.2 v -12.4 c 0,-6.8 -3.6,-9.1 -7,-9.1 -1.8,0 -3.1,0.4 -4.3,1.3 -1,0.6 -1.8,1.5 -2.6,2.6 H 194 c -0.9,-2.3 -3.1,-3.9 -5.8,-3.9 -3.6,0 -5.5,1.9 -6.5,3.6 h -0.1 l -0.3,-3.1 h -4.5 c 0.1,1.8 0.2,3.9 0.2,6.3 z" />

	<path
   id="path1786"
   class="st2"
   d="m 213.7,145.8 h 5.3 v -10.9 h 0.1 c 1.1,1.7 3.3,2.8 5.9,2.8 4.8,0 9.6,-3.7 9.6,-11.3 0,-6.6 -4,-10.7 -8.9,-10.7 -3.2,0 -5.7,1.3 -7.2,3.7 h -0.1 l -0.3,-3.2 h -4.7 c 0.1,2 0.2,4.2 0.2,7 v 22.6 z m 5.3,-20.6 c 0,-0.4 0.1,-0.9 0.2,-1.3 0.6,-2.3 2.6,-3.9 4.8,-3.9 3.4,0 5.2,3 5.2,6.8 0,4.2 -2,7 -5.4,7 -2.3,0 -4.2,-1.6 -4.7,-3.7 -0.1,-0.5 -0.1,-1 -0.1,-1.5 z" />

	<path
   id="path1788"
   class="st2"
   d="m 239,137.3 h 5.3 V 106.5 H 239 Z" />

	<path
   id="path1790"
   class="st2"
   d="m 268.1,128.2 c 0.1,-0.5 0.2,-1.3 0.2,-2.3 0,-4.6 -2.3,-10.3 -9.1,-10.3 -6.8,0 -10.3,5.5 -10.3,11.4 0,6.5 4,10.7 10.9,10.7 3,0 5.5,-0.6 7.4,-1.3 l -0.8,-3.6 c -1.6,0.6 -3.4,1 -5.8,1 -3.4,0 -6.4,-1.6 -6.5,-5.5 z M 254,124.5 c 0.2,-2.2 1.6,-5.2 4.9,-5.2 3.6,0 4.4,3.2 4.4,5.2 z" />

	<path
   id="path1792"
   class="st2"
   d="m 272.5,137.3 h 5.3 v -11 c 0,-0.6 0,-1.1 0.1,-1.6 0.5,-2.4 2.3,-4 4.8,-4 0.6,0 1.1,0 1.6,0.1 v -5 c -0.4,-0.1 -0.7,-0.1 -1.3,-0.1 -2.3,0 -4.8,1.5 -5.8,4.5 h -0.1 l -0.2,-4 h -4.6 c 0.1,1.9 0.2,3.9 0.2,6.8 z" />

</g>
      <g
         class="st3"
         id="g907"
         transform="translate(-7.2314976,-59.207883)">
	<path
   class="st4"
   d="m 84.7,59.5 c -0.1,-2.5 2,-4.4 4.4,-4.4 2.4,0 4.4,1.9 4.4,4.4 0,2.4 -1.9,4.4 -4.4,4.4 -2.5,0 -4.4,-1.9 -4.4,-4.4 z"
   id="path905" />

</g>
      <g
         id="text912-8-9-2"
         transform="matrix(0.81749016,0,0,0.93127825,-50.404513,-116.83382)">
	<path
   id="path1771"
   class="st2"
   d="m 52.8,137.3 c 1.8,0.2 4.1,0.4 7.2,0.4 5.7,0 10.3,-1.3 13.2,-4 2.8,-2.5 4.5,-6.4 4.5,-11.6 0,-4.9 -1.7,-8.4 -4.6,-10.7 -2.7,-2.3 -6.4,-3.4 -11.9,-3.4 -3.2,0 -6.1,0.3 -8.5,0.6 z m 5.3,-24.9 c 0.8,-0.2 1.9,-0.3 3.6,-0.3 6.7,0 10.4,3.7 10.4,10.1 0,7.4 -4.1,11.3 -11,11.2 -1.1,0 -2.2,0 -2.9,-0.1 v -20.9 z" />

	<path
   id="path1773"
   class="st2"
   d="m 100.1,128.3 c 0.1,-0.5 0.2,-1.3 0.2,-2.3 0,-4.6 -2.3,-10.3 -9.1,-10.3 -6.8,0 -10.3,5.5 -10.3,11.4 0,6.5 4,10.7 10.9,10.7 3,0 5.5,-0.6 7.4,-1.3 l -0.8,-3.6 c -1.6,0.6 -3.4,1 -5.8,1 -3.4,0 -6.4,-1.6 -6.5,-5.5 z M 86,124.6 c 0.2,-2.2 1.6,-5.2 4.9,-5.2 3.6,0 4.4,3.2 4.4,5.2 z" />

	<path
   id="path1775"
   class="st2"
   d="m 122.4,128.3 c 0.1,-0.5 0.2,-1.3 0.2,-2.3 0,-4.6 -2.3,-10.3 -9.1,-10.3 -6.8,0 -10.3,5.5 -10.3,11.4 0,6.5 4,10.7 10.9,10.7 3,0 5.5,-0.6 7.4,-1.3 l -0.8,-3.6 c -1.6,0.6 -3.4,1 -5.8,1 -3.4,0 -6.4,-1.6 -6.5,-5.5 z m -14.1,-3.7 c 0.2,-2.2 1.6,-5.2 4.9,-5.2 3.6,0 4.4,3.2 4.4,5.2 z" />

	<path
   id="path1777"
   class="st2"
   d="m 126.9,146 h 5.3 v -11 h 0.1 c 1.1,1.7 3.3,2.8 5.9,2.8 4.8,0 9.6,-3.7 9.6,-11.3 0,-6.6 -4,-10.7 -8.9,-10.7 -3.2,0 -5.7,1.3 -7.2,3.7 h -0.1 l -0.3,-3.2 h -4.7 c 0.1,2 0.2,4.2 0.2,7 z m 5.3,-20.7 c 0,-0.4 0.1,-0.9 0.2,-1.3 0.6,-2.3 2.6,-3.9 4.8,-3.9 3.4,0 5.2,3 5.2,6.8 0,4.2 -2,7 -5.4,7 -2.3,0 -4.2,-1.6 -4.7,-3.7 -0.1,-0.5 -0.1,-1 -0.1,-1.5 z" />

</g>
    </g>
    <g
       aria-label="A stubbing framework for CompoundTests"
       id="text3379"
       style="font-style:normal;font-variant:normal;font-weight:normal;font-stretch:normal;font-size:14.6756px;line-height:1.25;font-family:Candara;-inkscape-font-specification:Candara;letter-spacing:0px;word-spacing:0px;fill:#37abc8;fill-opacity:1;stroke:none;stroke-width:0.36689"
       transform="matrix(1.1301303,0,0,1.1301303,-10.500533,7.4004772)">
      <path
         d="m 104.19444,67.819426 q -0.65925,1.533485 -0.96022,2.350389 -0.30096,0.816903 -0.30096,1.053375 h -0.76675 q 0,-0.229306 1.9921,-4.550296 1.99927,-4.320989 1.99927,-4.786768 h 0.80973 q 0,0.422784 1.96344,4.693613 1.9706,4.263663 1.9706,4.643451 h -0.73808 q 0,-0.465778 -1.28985,-3.403764 z m 2.36472,-5.345702 h -0.0645 q 0,0.207808 -2.12825,4.872758 h 4.28516 q -1.06054,-2.479374 -1.57648,-3.611574 -0.51594,-1.139365 -0.51594,-1.261184 z"
         style="fill:#37abc8;fill-opacity:1;stroke-width:0.36689"
         id="path3381" />
      <path
         d="m 114.95034,70.986718 0.15765,-0.673587 q 0.48011,0.222141 1.04621,0.322462 0.57326,0.100322 1.30418,0.100322 0.68791,0 1.08203,-0.329628 0.40129,-0.329628 0.40129,-0.852733 0,-0.429949 -0.20781,-0.759577 -0.20781,-0.329628 -0.95305,-0.623426 -0.74525,-0.300965 -1.38301,-0.594763 -0.63775,-0.293799 -0.94588,-0.702251 -0.30097,-0.415617 -0.30097,-0.945888 0,-0.773909 0.61626,-1.225355 0.61626,-0.451447 1.55498,-0.451447 1.02472,0 1.92761,0.265135 l -0.16481,0.601929 q -0.70942,-0.293798 -1.83445,-0.293798 -0.70225,0 -1.11787,0.315296 -0.40845,0.315296 -0.40845,0.773908 0,0.523105 0.43711,0.816904 0.43712,0.293799 1.46899,0.716582 1.03188,0.415618 1.45467,0.838401 0.42995,0.422783 0.42995,1.175195 0,0.895727 -0.60193,1.390169 -0.60193,0.487275 -1.66247,0.487275 -1.1967,0 -2.30023,-0.351125 z"
         style="fill:#37abc8;fill-opacity:1;stroke-width:0.36689"
         id="path3383" />
      <path
         d="m 124.96815,71.180195 q -0.62342,0.186312 -1.0677,0.186312 -1.25402,0 -1.61948,-0.695085 -0.36545,-0.70225 -0.36545,-2.250067 0,-1.877445 0.0143,-3.346439 -0.42995,0 -1.33285,0.043 l 0.0287,-0.587597 q 0.7954,0.04299 1.36867,0.04299 0,-0.781074 0.086,-2.070922 l 0.63059,-0.04299 q -0.13615,1.655305 -0.13615,2.113917 0.62343,0 2.30739,-0.07166 l -0.043,0.61626 q -1.47616,-0.043 -2.30739,-0.043 -0.043,1.254019 -0.043,2.952318 0,1.863114 0.40129,2.336058 0.40845,0.465778 1.15369,0.465778 0.20781,0 0.42995,-0.03583 0.22214,-0.04299 0.55177,-0.128985 z"
         style="fill:#37abc8;fill-opacity:1;stroke-width:0.36689"
         id="path3385" />
      <path
         d="m 131.74702,71.237522 q -0.086,-0.401286 -0.086,-0.687919 h -0.0287 q -0.41562,0.336794 -1.03905,0.587597 -0.62342,0.250804 -1.35434,0.250804 -1.49765,0 -1.97776,-0.652089 -0.47295,-0.659256 -0.47295,-1.78429 l 0.007,-0.910059 q 0,-0.17198 0.007,-0.487276 0.0143,-0.39412 0.0143,-1.053375 0,-0.917225 -0.086,-2.056591 l 0.75957,-0.04299 q -0.0573,1.254019 -0.0573,2.859163 0,1.289847 0.0717,2.092419 0.0717,0.802572 0.44429,1.125034 0.37978,0.322462 1.33284,0.322462 1.49765,0 2.33606,-0.795406 0,-4.292327 -0.0573,-5.560677 l 0.67359,-0.04299 -0.007,0.487276 q -0.0358,2.149746 -0.0358,3.410931 0,1.49049 0.12899,2.923654 z"
         style="fill:#37abc8;fill-opacity:1;stroke-width:0.36689"
         id="path3387" />
      <path
         d="m 137.22171,71.402336 q -0.67359,0 -1.19669,-0.143317 -0.51594,-0.13615 -0.81691,-0.315296 h -0.0287 l -0.12899,0.279467 h -0.53027 q 0.0717,-2.035093 0.0717,-5.360033 0,-2.773173 -0.11465,-4.693613 l 0.78824,-0.07166 q -0.0717,0.730914 -0.0717,4.005694 h 0.0287 q 0.32963,-0.401286 0.95306,-0.666422 0.62342,-0.272301 1.36867,-0.272301 1.43316,0 2.23574,0.981718 0.80257,0.974551 0.80257,2.407715 0,1.676802 -0.94589,2.766007 -0.93872,1.082039 -2.41488,1.082039 z m 0.12898,-6.664213 q -1.47616,0 -2.18557,1.039044 0,2.694348 0.086,4.607622 0.73808,0.501608 1.83445,0.501608 1.43316,0 2.12108,-0.931557 0.68792,-0.938722 0.68792,-2.271565 0,-1.461827 -0.70942,-2.199907 -0.70941,-0.745245 -1.83445,-0.745245 z"
         style="fill:#37abc8;fill-opacity:1;stroke-width:0.36689"
         id="path3389" />
      <path
         d="m 145.39791,71.402336 q -0.67359,0 -1.1967,-0.143317 -0.51593,-0.13615 -0.8169,-0.315296 h -0.0287 l -0.12899,0.279467 h -0.53027 q 0.0717,-2.035093 0.0717,-5.360033 0,-2.773173 -0.11465,-4.693613 l 0.78824,-0.07166 q -0.0717,0.730914 -0.0717,4.005694 h 0.0287 q 0.32963,-0.401286 0.95306,-0.666422 0.62342,-0.272301 1.36867,-0.272301 1.43316,0 2.23573,0.981718 0.80258,0.974551 0.80258,2.407715 0,1.676802 -0.94589,2.766007 -0.93872,1.082039 -2.41488,1.082039 z m 0.12898,-6.664213 q -1.47616,0 -2.18557,1.039044 0,2.694348 0.086,4.607622 0.73808,0.501608 1.83445,0.501608 1.43316,0 2.12108,-0.931557 0.68792,-0.938722 0.68792,-2.271565 0,-1.461827 -0.70942,-2.199907 -0.70941,-0.745245 -1.83445,-0.745245 z"
         style="fill:#37abc8;fill-opacity:1;stroke-width:0.36689"
         id="path3391" />
      <path
         d="m 151.18072,61.728478 q 0.19348,0 0.3153,0.17198 0.12182,0.164814 0.12182,0.386954 0,0.25797 -0.12899,0.444281 -0.12898,0.186312 -0.39412,0.186312 -0.22214,0 -0.35829,-0.164814 -0.12898,-0.164814 -0.12898,-0.39412 0,-0.243638 0.15048,-0.437115 0.15765,-0.193478 0.42278,-0.193478 z m -0.61626,2.74451 0.80974,-0.193478 q -0.0788,1.669637 -0.0788,3.776388 0,1.74846 0.10748,3.167292 h -0.75241 q 0.10749,-1.734128 0.10749,-3.167292 0,-2.020762 -0.19348,-3.58291 z"
         style="fill:#37abc8;fill-opacity:1;stroke-width:0.36689"
         id="path3393" />
      <path
         d="m 154.37668,65.232565 h 0.0143 q 1.1752,-1.053376 2.33606,-1.053376 1.23969,0 1.86311,0.530271 0.6306,0.53027 0.6306,1.848781 l -0.007,0.515939 q 0,0.121819 -0.007,0.365457 0,0.87423 0.007,1.411667 l 0.007,2.371886 h -0.71659 q 0.17198,-2.185575 0.17198,-4.535964 0,-1.103536 -0.59476,-1.511988 -0.5876,-0.408452 -1.51915,-0.408452 -1.1967,0 -2.18558,0.924391 -0.0143,0.523105 -0.0143,1.791455 0,0.931557 0.007,1.762792 l 0.0143,1.519154 q 0,0.150482 0.007,0.458612 h -0.68792 q 0.12899,-2.644187 0.12899,-3.525583 0,-1.433164 -0.28663,-3.281946 l 0.70225,-0.150482 z"
         style="fill:#37abc8;fill-opacity:1;stroke-width:0.36689"
         id="path3395" />
      <path
         d="m 160.9979,72.677852 q 0,-0.659256 0.31529,-1.196692 0.3153,-0.537437 0.96022,-0.802572 v -0.02866 q -0.23647,-0.09316 -0.38695,-0.329628 -0.15048,-0.243638 -0.15048,-0.623426 0,-0.644924 0.63059,-1.160863 v -0.01433 q -0.32246,-0.128985 -0.66642,-0.616261 -0.3368,-0.494441 -0.3368,-1.175194 0,-1.053376 0.70942,-1.791455 0.71658,-0.745245 1.9491,-0.745245 1.1322,0 1.74846,0.501607 h 0.0573 q 0.14332,-0.594763 0.42278,-0.87423 0.27947,-0.286633 0.70942,-0.286633 0.5876,0 0.80257,0.043 l -0.0573,0.601929 q -0.77391,0 -1.18953,0.193477 -0.40845,0.193477 -0.42278,0.508773 v 0.043 q 0.27946,0.329628 0.41561,0.659256 0.14332,0.322462 0.14332,0.752411 0,0.730914 -0.34396,1.318511 -0.33679,0.580431 -1.01755,0.888562 -0.68075,0.300964 -1.41166,0.300964 -0.37979,0 -0.71659,-0.043 -0.32962,-0.04299 -0.48727,-0.114653 -0.42995,0.315296 -0.42995,0.845567 0,0.444281 0.53744,0.61626 0.53743,0.164814 2.23573,0.164814 2.6012,0 2.6012,1.640973 0,1.246853 -0.97456,2.106751 -0.97455,0.859899 -2.69434,0.859899 -1.34718,0 -2.14975,-0.5661 -0.80257,-0.558934 -0.80257,-1.676802 z m 5.00891,-6.090947 q 0,-0.888562 -0.5661,-1.39017 -0.55894,-0.501607 -1.53349,-0.501607 -0.90289,0 -1.4475,0.48011 -0.53743,0.48011 -0.53743,1.304179 0,0.902894 0.57326,1.383004 0.57327,0.472944 1.52632,0.472944 0.86707,0 1.426,-0.472944 0.55894,-0.472945 0.55894,-1.275516 z m 1.1107,5.825811 q 0,-0.78824 -0.55894,-1.146531 -0.55893,-0.351125 -2.22857,-0.351125 -0.89572,0 -1.71263,-0.100321 -0.51594,0.214974 -0.80257,0.623426 -0.28663,0.408452 -0.28663,0.974551 0,0.953055 0.68075,1.454662 0.68075,0.508773 2.00643,0.508773 1.39017,0 2.14258,-0.580431 0.75958,-0.573266 0.75958,-1.383004 z"
         style="fill:#37abc8;fill-opacity:1;stroke-width:0.36689"
         id="path3397" />
      <path
         d="m 175.80249,61.65682 q -0.45145,-0.121819 -0.8814,-0.121819 -0.78824,0 -1.06054,0.673587 -0.2723,0.666422 -0.2723,2.364721 0.60909,0 2.17124,-0.07166 l -0.0287,0.61626 q -1.7198,-0.043 -2.14258,-0.043 0,3.554247 0.0717,6.148274 h -0.75242 q 0.0932,-2.164077 0.0932,-6.148274 -0.44428,0 -1.74846,0.043 l 0.043,-0.601929 0.6306,0.0215 q 0.78824,0.03583 1.07487,0.03583 0,-1.562149 0.18631,-2.264399 0.18631,-0.702251 0.64492,-1.039044 0.46578,-0.336794 1.21819,-0.336794 0.32247,0 0.91006,0.121819 z"
         style="fill:#37abc8;fill-opacity:1;stroke-width:0.36689"
         id="path3399" />
      <path
         d="m 180.73257,65.046253 q -0.57326,-0.236472 -1.20386,-0.236472 -0.66642,0 -1.16086,0.379789 -0.48727,0.379788 -0.71658,1.103536 0,3.367935 0.0573,4.930084 h -0.70225 q 0.0717,-1.963434 0.0717,-3.525583 0,-1.626642 -0.27946,-3.267614 l 0.63059,-0.164814 q 0.16481,0.852732 0.17914,1.160863 h 0.086 q 0.44429,-0.630593 0.89573,-0.938723 0.45861,-0.30813 0.95306,-0.30813 0.5661,0 1.37583,0.236472 z"
         style="fill:#37abc8;fill-opacity:1;stroke-width:0.36689"
         id="path3401" />
      <path
         d="m 186.04961,70.492277 q -0.95306,0.910059 -2.40772,0.910059 -1.0892,0 -1.6768,-0.48011 -0.5876,-0.487276 -0.5876,-1.418833 0,-1.168028 1.00322,-1.79862 1.01038,-0.630593 3.6689,-0.65209 0.0287,-0.25797 0.0287,-0.508773 0,-0.981718 -0.55893,-1.361506 -0.55894,-0.386955 -1.52632,-0.386955 -1.14653,0 -2.3074,0.293799 l 0.0932,-0.61626 q 1.09637,-0.293799 2.2429,-0.293799 1.23969,0 1.93477,0.515939 0.69509,0.508773 0.69509,1.698299 0,0.386955 -0.043,1.1322 -0.0358,0.73808 -0.0358,1.468993 0,1.053376 0.16482,2.22857 l -0.57327,0.02866 q -0.0717,-0.444281 -0.0717,-0.759577 z m 0.0287,-2.937987 q -1.89177,0 -2.97381,0.437115 -1.08204,0.42995 -1.08204,1.576481 0,1.275516 1.69113,1.275516 0.77391,0 1.36867,-0.229306 0.60193,-0.229307 0.99605,-0.695085 z"
         style="fill:#37abc8;fill-opacity:1;stroke-width:0.36689"
         id="path3403" />
      <path
         d="m 189.79017,65.232565 h 0.0143 q 0.96739,-1.053376 2.05659,-1.053376 0.94589,0 1.52632,0.272301 0.58043,0.265135 0.76674,0.781075 h 0.0573 q 0.53744,-0.51594 1.0892,-0.781075 0.55177,-0.272301 1.06771,-0.272301 1.20386,0 1.80579,0.537436 0.60193,0.537437 0.60193,1.841616 l -0.0143,0.709416 -0.0143,0.386955 0.007,1.189526 q 0.0215,0.988883 0.0215,2.379052 h -0.69509 q 0.16482,-1.956269 0.16482,-4.772436 0,-0.917225 -0.42995,-1.297014 -0.42995,-0.386954 -1.50483,-0.386954 -0.49444,0 -1.01754,0.272301 -0.51594,0.272302 -0.99605,0.795406 -0.0287,0.573266 -0.0287,1.820119 0,1.189526 0.043,3.568578 h -0.70225 q 0.12898,-1.83445 0.12898,-4.478637 0,-1.261185 -0.48727,-1.619476 -0.48728,-0.358291 -1.4475,-0.358291 -1.00321,0 -2.05659,0.967386 -0.0143,0.437115 -0.0143,1.61231 0,1.289847 0.0215,3.117131 l 0.007,0.759577 h -0.65925 q 0.12898,-2.644187 0.12898,-3.525583 0,-1.433164 -0.28663,-3.281946 l 0.70225,-0.150482 z"
         style="fill:#37abc8;fill-opacity:1;stroke-width:0.36689"
         id="path3405" />
      <path
         d="m 201.34147,67.64028 q 0,1.390169 0.85273,2.300228 0.8599,0.902894 2.31456,0.902894 1.10354,0 1.83445,-0.222141 l -0.10032,0.573266 q -0.22214,0.07166 -0.68792,0.136151 -0.46577,0.07166 -0.98888,0.07166 -1.89894,0 -2.85916,-0.996049 -0.95306,-1.003215 -0.95306,-2.472208 0,-0.781075 0.18632,-1.447496 0.19347,-0.666421 0.57326,-1.218189 0.90289,-1.175195 2.32173,-1.175195 1.27551,0 1.97776,0.824069 0.70942,0.82407 0.70942,2.035093 0,0.394121 -0.0287,0.630593 z m 0.043,-0.508773 h 4.49297 q 0,-1.211024 -0.52311,-1.863113 -0.5231,-0.65209 -1.54782,-0.65209 -0.95305,0 -1.60514,0.644924 -0.64492,0.637758 -0.8169,1.870279 z"
         style="fill:#37abc8;fill-opacity:1;stroke-width:0.36689"
         id="path3407" />
      <path
         d="m 217.97334,64.415661 q 0,0.236472 -0.94589,2.364721 -0.93872,2.128248 -1.30418,3.167292 -0.36545,1.039044 -0.36545,1.275516 h -0.3368 q 0,-0.186311 -0.17914,-0.666421 -0.17198,-0.487276 -0.68792,-1.791455 l -0.55177,-1.390169 q -0.35829,-0.902894 -0.55177,-1.404501 -0.18631,-0.501607 -0.28663,-0.867064 -0.17198,0.401286 -0.37979,0.996049 l -0.24364,0.659255 q -0.17198,0.458613 -0.91006,2.321726 -0.73091,1.863113 -0.73091,2.14258 h -0.33679 q 0,-0.523105 -1.22536,-3.425262 -1.22535,-2.909323 -1.22535,-3.382267 h 0.65925 q 0,0.501607 1.00322,2.995313 1.01038,2.48654 1.01038,2.801836 h 0.043 q 0,-0.236472 0.35113,-1.261185 0.35112,-1.031878 1.01754,-2.629856 0.67359,-1.605144 0.67359,-1.906108 h 0.73091 q 0,0.422783 1.01755,3.023976 1.02471,2.601193 1.02471,2.773173 h 0.043 q 0,-0.214975 0.20064,-0.938723 0.20781,-0.723748 0.68792,-1.841616 0.48011,-1.117868 0.78824,-1.927605 0.3153,-0.816904 0.3153,-1.089205 z"
         style="fill:#37abc8;fill-opacity:1;stroke-width:0.36689"
         id="path3409" />
      <path
         d="m 222.28716,71.502657 q -1.29702,0 -2.17125,-0.910059 -0.86706,-0.917225 -0.86706,-2.508037 0,-1.841616 0.97455,-2.909323 0.97455,-1.067707 2.38622,-1.067707 1.11787,0 2.05659,0.859898 0.93872,0.852733 0.93872,2.601193 0,1.812952 -0.98171,2.873494 -0.97456,1.060541 -2.33606,1.060541 z m 0.12898,-6.915016 q -1.31851,0 -1.93477,1.017546 -0.61626,1.010381 -0.61626,2.156912 0,1.433164 0.70225,2.343223 0.70225,0.91006 1.86311,0.91006 1.31135,0 1.94194,-1.017547 0.63059,-1.017546 0.63059,-2.149746 0,-1.397335 -0.71658,-2.328892 -0.71658,-0.931556 -1.87028,-0.931556 z"
         style="fill:#37abc8;fill-opacity:1;stroke-width:0.36689"
         id="path3411" />
      <path
         d="m 231.37342,65.046253 q -0.57327,-0.236472 -1.20386,-0.236472 -0.66642,0 -1.16086,0.379789 -0.48728,0.379788 -0.71658,1.103536 0,3.367935 0.0573,4.930084 h -0.70225 q 0.0717,-1.963434 0.0717,-3.525583 0,-1.626642 -0.27947,-3.267614 l 0.6306,-0.164814 q 0.16481,0.852732 0.17914,1.160863 h 0.086 q 0.44428,-0.630593 0.89573,-0.938723 0.45861,-0.30813 0.95305,-0.30813 0.5661,0 1.37584,0.236472 z"
         style="fill:#37abc8;fill-opacity:1;stroke-width:0.36689"
         id="path3413" />
      <path
         d="m 233.13622,67.009688 h 0.0143 q 0.2723,0 0.98888,-0.551768 0.71658,-0.551768 1.52632,-1.211024 0.8169,-0.659255 0.8169,-0.831235 h 1.01038 q 0,0.08599 -0.26513,0.329628 -0.25797,0.243638 -1.01038,0.795406 l -1.02471,0.752411 q -0.97456,0.716582 -1.1322,0.838401 v 0.01433 q 0.42278,0.343959 0.91722,0.816903 0.50161,0.465778 1.37584,1.318511 l 0.33679,0.329628 q 0.8384,0.845567 1.12504,1.196692 0.29379,0.343959 0.29379,0.415617 h -0.98171 q 0,-0.179145 -1.19669,-1.411666 -1.18953,-1.232521 -1.85595,-1.863114 -0.66642,-0.630592 -0.91006,-0.630592 h -0.0287 q 0,0.623427 0.0502,1.992098 0.0502,1.368672 0.0645,1.913274 h -0.8169 q 0.0143,-0.723748 0.0287,-1.053375 l 0.043,-1.511988 q 0.0287,-1.289848 0.0287,-2.79467 0,-3.002479 -0.15765,-4.736608 l 0.83123,-0.02866 q -0.0717,3.18879 -0.0717,4.736607 z"
         style="fill:#37abc8;fill-opacity:1;stroke-width:0.36689"
         id="path3415" />
      <path
         d="m 245.88421,61.65682 q -0.45145,-0.121819 -0.88139,-0.121819 -0.78824,0 -1.06055,0.673587 -0.2723,0.666422 -0.2723,2.364721 0.6091,0 2.17125,-0.07166 l -0.0287,0.61626 q -1.71979,-0.043 -2.14258,-0.043 0,3.554247 0.0717,6.148274 h -0.75241 q 0.0932,-2.164077 0.0932,-6.148274 -0.44428,0 -1.74846,0.043 l 0.043,-0.601929 0.63059,0.0215 q 0.78824,0.03583 1.07488,0.03583 0,-1.562149 0.18631,-2.264399 0.18631,-0.702251 0.64492,-1.039044 0.46578,-0.336794 1.21819,-0.336794 0.32246,0 0.91006,0.121819 z"
         style="fill:#37abc8;fill-opacity:1;stroke-width:0.36689"
         id="path3417" />
      <path
         d="m 249.9329,71.502657 q -1.29701,0 -2.17124,-0.910059 -0.86707,-0.917225 -0.86707,-2.508037 0,-1.841616 0.97456,-2.909323 0.97455,-1.067707 2.38621,-1.067707 1.11787,0 2.05659,0.859898 0.93873,0.852733 0.93873,2.601193 0,1.812952 -0.98172,2.873494 -0.97455,1.060541 -2.33606,1.060541 z m 0.12899,-6.915016 q -1.31851,0 -1.93477,1.017546 -0.61627,1.010381 -0.61627,2.156912 0,1.433164 0.70226,2.343223 0.70225,0.91006 1.86311,0.91006 1.31134,0 1.94194,-1.017547 0.63059,-1.017546 0.63059,-2.149746 0,-1.397335 -0.71658,-2.328892 -0.71659,-0.931556 -1.87028,-0.931556 z"
         style="fill:#37abc8;fill-opacity:1;stroke-width:0.36689"
         id="path3419" />
      <path
         d="m 259.01916,65.046253 q -0.57326,-0.236472 -1.20386,-0.236472 -0.66642,0 -1.16086,0.379789 -0.48727,0.379788 -0.71658,1.103536 0,3.367935 0.0573,4.930084 h -0.70225 q 0.0717,-1.963434 0.0717,-3.525583 0,-1.626642 -0.27946,-3.267614 l 0.63059,-0.164814 q 0.16481,0.852732 0.17914,1.160863 h 0.086 q 0.44429,-0.630593 0.89573,-0.938723 0.45861,-0.30813 0.95306,-0.30813 0.5661,0 1.37583,0.236472 z"
         style="fill:#37abc8;fill-opacity:1;stroke-width:0.36689"
         id="path3421" />
      <path
         d="m 262.96753,66.758884 q 0,-1.447495 0.65925,-2.594027 0.65926,-1.146531 1.79146,-1.777123 1.13936,-0.630592 2.43638,-0.630592 0.39412,0 0.65925,0.05016 0.2723,0.04299 0.64493,0.157648 l -0.14332,0.601929 q -0.82407,-0.22214 -1.32568,-0.22214 -1.82011,0 -2.96665,1.168029 -1.13936,1.160863 -1.13936,3.059805 0,2.156912 1.16086,3.246117 1.16803,1.082038 3.28195,1.082038 0.70225,0 1.71979,-0.30813 l -0.043,0.530271 q -0.78824,0.293798 -1.84878,0.293798 -2.25724,0 -3.57575,-1.232521 -1.31134,-1.232521 -1.31134,-3.425262 z"
         style="fill:#37abc8;fill-opacity:1;stroke-width:0.36689"
         id="path3423" />
      <path
         d="m 274.08888,71.502657 q -1.29702,0 -2.17125,-0.910059 -0.86706,-0.917225 -0.86706,-2.508037 0,-1.841616 0.97455,-2.909323 0.97455,-1.067707 2.38622,-1.067707 1.11787,0 2.05659,0.859898 0.93872,0.852733 0.93872,2.601193 0,1.812952 -0.98172,2.873494 -0.97455,1.060541 -2.33605,1.060541 z m 0.12898,-6.915016 q -1.31851,0 -1.93477,1.017546 -0.61626,1.010381 -0.61626,2.156912 0,1.433164 0.70225,2.343223 0.70225,0.91006 1.86311,0.91006 1.31135,0 1.94194,-1.017547 0.63059,-1.017546 0.63059,-2.149746 0,-1.397335 -0.71658,-2.328892 -0.71658,-0.931556 -1.87028,-0.931556 z"
         style="fill:#37abc8;fill-opacity:1;stroke-width:0.36689"
         id="path3425" />
      <path
         d="m 280.26581,65.232565 h 0.0143 q 0.96738,-1.053376 2.05659,-1.053376 0.94589,0 1.52632,0.272301 0.58043,0.265135 0.76674,0.781075 h 0.0573 q 0.53743,-0.51594 1.0892,-0.781075 0.55177,-0.272301 1.06771,-0.272301 1.20386,0 1.80578,0.537436 0.60193,0.537437 0.60193,1.841616 l -0.0143,0.709416 -0.0143,0.386955 0.007,1.189526 q 0.0215,0.988883 0.0215,2.379052 h -0.69508 q 0.16481,-1.956269 0.16481,-4.772436 0,-0.917225 -0.42995,-1.297014 -0.42995,-0.386954 -1.50482,-0.386954 -0.49444,0 -1.01755,0.272301 -0.51593,0.272302 -0.99604,0.795406 -0.0287,0.573266 -0.0287,1.820119 0,1.189526 0.043,3.568578 H 284.085 q 0.12898,-1.83445 0.12898,-4.478637 0,-1.261185 -0.48727,-1.619476 -0.48728,-0.358291 -1.4475,-0.358291 -1.00321,0 -2.05659,0.967386 -0.0143,0.437115 -0.0143,1.61231 0,1.289847 0.0215,3.117131 l 0.007,0.759577 h -0.65925 q 0.12898,-2.644187 0.12898,-3.525583 0,-1.433164 -0.28663,-3.281946 l 0.70225,-0.150482 z"
         style="fill:#37abc8;fill-opacity:1;stroke-width:0.36689"
         id="path3427" />
      <path
         d="m 292.11092,65.10358 h 0.0287 q 0.32963,-0.408452 0.96739,-0.673587 0.63775,-0.265136 1.48332,-0.265136 1.36151,0 2.13542,1.017547 0.78107,1.01038 0.78107,2.371886 0,1.669636 -0.93156,2.758841 -0.92439,1.089205 -2.42921,1.089205 -0.69508,0 -1.18953,-0.136151 -0.48727,-0.13615 -0.70225,-0.322462 h -0.0573 q 0,2.214239 0.043,3.554247 h -0.77391 q 0.043,-0.924391 0.0502,-2.121083 0.007,-1.196692 0.007,-2.565363 v -1.332843 q 0,-1.504822 -0.0358,-2.429213 -0.0358,-0.924391 -0.15765,-1.633807 l 0.67359,-0.150482 z m 4.70794,2.5367 q 0,-1.375837 -0.67359,-2.135414 -0.67358,-0.766743 -1.84878,-0.766743 -0.72375,0 -1.28268,0.286633 -0.55177,0.279467 -0.93156,0.738079 0,0.702251 0.0358,1.798621 l 0.0215,1.418833 q 0.0143,0.888561 0.0143,1.4045 0.3368,0.243638 0.82407,0.372623 0.49444,0.128985 1.05338,0.128985 1.31851,0 2.04942,-0.881396 0.73808,-0.888562 0.73808,-2.364721 z"
         style="fill:#37abc8;fill-opacity:1;stroke-width:0.36689"
         id="path3429" />
      <path
         d="m 302.37954,71.502657 q -1.29701,0 -2.17124,-0.910059 -0.86707,-0.917225 -0.86707,-2.508037 0,-1.841616 0.97456,-2.909323 0.97455,-1.067707 2.38621,-1.067707 1.11787,0 2.05659,0.859898 0.93873,0.852733 0.93873,2.601193 0,1.812952 -0.98172,2.873494 -0.97455,1.060541 -2.33606,1.060541 z m 0.12899,-6.915016 q -1.31851,0 -1.93477,1.017546 -0.61627,1.010381 -0.61627,2.156912 0,1.433164 0.70226,2.343223 0.70225,0.91006 1.86311,0.91006 1.31134,0 1.94194,-1.017547 0.63059,-1.017546 0.63059,-2.149746 0,-1.397335 -0.71658,-2.328892 -0.71659,-0.931556 -1.87028,-0.931556 z"
         style="fill:#37abc8;fill-opacity:1;stroke-width:0.36689"
         id="path3431" />
      <path
         d="m 312.8703,71.237522 q -0.086,-0.401286 -0.086,-0.687919 h -0.0287 q -0.41562,0.336794 -1.03904,0.587597 -0.62343,0.250804 -1.35434,0.250804 -1.49766,0 -1.97777,-0.652089 -0.47294,-0.659256 -0.47294,-1.78429 l 0.007,-0.910059 q 0,-0.17198 0.007,-0.487276 0.0143,-0.39412 0.0143,-1.053375 0,-0.917225 -0.086,-2.056591 l 0.75958,-0.04299 q -0.0573,1.254019 -0.0573,2.859163 0,1.289847 0.0717,2.092419 0.0717,0.802572 0.44428,1.125034 0.37979,0.322462 1.33284,0.322462 1.49766,0 2.33606,-0.795406 0,-4.292327 -0.0573,-5.560677 l 0.67359,-0.04299 -0.007,0.487276 q -0.0358,2.149746 -0.0358,3.410931 0,1.49049 0.12899,2.923654 z"
         style="fill:#37abc8;fill-opacity:1;stroke-width:0.36689"
         id="path3433" />
      <path
         d="m 316.33139,65.232565 h 0.0143 q 1.17519,-1.053376 2.33605,-1.053376 1.23969,0 1.86312,0.530271 0.63059,0.53027 0.63059,1.848781 l -0.007,0.515939 q 0,0.121819 -0.007,0.365457 0,0.87423 0.007,1.411667 l 0.007,2.371886 h -0.71658 q 0.17198,-2.185575 0.17198,-4.535964 0,-1.103536 -0.59477,-1.511988 -0.58759,-0.408452 -1.51915,-0.408452 -1.19669,0 -2.18558,0.924391 -0.0143,0.523105 -0.0143,1.791455 0,0.931557 0.007,1.762792 l 0.0143,1.519154 q 0,0.150482 0.007,0.458612 h -0.68792 q 0.12898,-2.644187 0.12898,-3.525583 0,-1.433164 -0.28663,-3.281946 l 0.70225,-0.150482 z"
         style="fill:#37abc8;fill-opacity:1;stroke-width:0.36689"
         id="path3435" />
      <path
         d="m 329.14387,64.394164 0.007,1.440329 q 0,3.195956 0.12898,5.388697 l -0.60192,0.01433 q -0.0573,-0.336794 -0.0573,-0.773909 h -0.0717 q -0.32963,0.39412 -0.96738,0.666422 -0.63776,0.272301 -1.44033,0.272301 -1.31135,0 -2.14258,-0.981718 -0.82407,-0.988883 -0.82407,-2.414881 0,-1.705465 0.93872,-2.780338 0.93872,-1.074873 2.50804,-1.074873 0.65209,0 1.12503,0.150482 0.48011,0.143316 0.73808,0.422783 h 0.0143 q 0,-1.289847 -0.0573,-3.58291 l 0.75241,-0.04299 q -0.0573,0.859899 -0.0573,2.085254 0,0.78824 0.007,1.211024 z m -0.64492,0.852732 q -0.30813,-0.293798 -0.76674,-0.437115 -0.45861,-0.143316 -1.00322,-0.143316 -1.426,0 -2.14974,0.859898 -0.71659,0.852733 -0.71659,2.479374 0,1.282682 0.68076,2.049425 0.68792,0.759577 1.89177,0.759577 0.60193,0 1.09637,-0.193478 0.49445,-0.200643 1.07488,-0.809737 0,-0.365457 0.007,-1.096371 0,-1.863113 -0.11465,-3.468257 z"
         style="fill:#37abc8;fill-opacity:1;stroke-width:0.36689"
         id="path3437" />
      <path
         d="m 336.38852,62.452226 q -1.57649,-0.03583 -2.06376,-0.03583 -0.0717,1.676802 -0.0717,3.876709 0,2.343223 0.0717,4.930084 h -0.74525 q 0.11466,-3.002478 0.11466,-4.915752 0,-1.010381 -0.0287,-1.848782 -0.0215,-0.838401 -0.0717,-2.042259 -0.5661,0 -1.67681,0.03583 l -1.41883,0.03583 v -0.601929 h 6.92218 l -0.0287,0.587598 z"
         style="fill:#37abc8;fill-opacity:1;stroke-width:0.36689"
         id="path3439" />
      <path
         d="m 338.1728,67.64028 q 0,1.390169 0.85273,2.300228 0.8599,0.902894 2.31456,0.902894 1.10354,0 1.83445,-0.222141 l -0.10032,0.573266 q -0.22214,0.07166 -0.68792,0.136151 -0.46578,0.07166 -0.98888,0.07166 -1.89894,0 -2.85916,-0.996049 -0.95306,-1.003215 -0.95306,-2.472208 0,-0.781075 0.18631,-1.447496 0.19348,-0.666421 0.57327,-1.218189 0.90289,-1.175195 2.32173,-1.175195 1.27551,0 1.97776,0.824069 0.70942,0.82407 0.70942,2.035093 0,0.394121 -0.0287,0.630593 z m 0.043,-0.508773 h 4.49297 q 0,-1.211024 -0.52311,-1.863113 -0.5231,-0.65209 -1.54782,-0.65209 -0.95305,0 -1.60514,0.644924 -0.64492,0.637758 -0.8169,1.870279 z"
         style="fill:#37abc8;fill-opacity:1;stroke-width:0.36689"
         id="path3441" />
      <path
         d="m 345.03049,70.986718 0.15765,-0.673587 q 0.48011,0.222141 1.04621,0.322462 0.57326,0.100322 1.30418,0.100322 0.68792,0 1.08204,-0.329628 0.40128,-0.329628 0.40128,-0.852733 0,-0.429949 -0.20781,-0.759577 -0.20781,-0.329628 -0.95305,-0.623426 -0.74525,-0.300965 -1.383,-0.594763 -0.63776,-0.293799 -0.94589,-0.702251 -0.30097,-0.415617 -0.30097,-0.945888 0,-0.773909 0.61626,-1.225355 0.61626,-0.451447 1.55499,-0.451447 1.02471,0 1.9276,0.265135 l -0.16481,0.601929 q -0.70942,-0.293798 -1.83445,-0.293798 -0.70225,0 -1.11787,0.315296 -0.40845,0.315296 -0.40845,0.773908 0,0.523105 0.43711,0.816904 0.43712,0.293799 1.469,0.716582 1.03188,0.415618 1.45466,0.838401 0.42995,0.422783 0.42995,1.175195 0,0.895727 -0.60193,1.390169 -0.60193,0.487275 -1.66247,0.487275 -1.19669,0 -2.30023,-0.351125 z"
         style="fill:#37abc8;fill-opacity:1;stroke-width:0.36689"
         id="path3443" />
      <path
         d="m 355.04832,71.180195 q -0.62343,0.186312 -1.06771,0.186312 -1.25402,0 -1.61947,-0.695085 -0.36546,-0.70225 -0.36546,-2.250067 0,-1.877445 0.0143,-3.346439 -0.42995,0 -1.33284,0.043 l 0.0287,-0.587597 q 0.79541,0.04299 1.36867,0.04299 0,-0.781074 0.086,-2.070922 l 0.6306,-0.04299 q -0.13616,1.655305 -0.13616,2.113917 0.62343,0 2.3074,-0.07166 l -0.043,0.61626 q -1.47616,-0.043 -2.30739,-0.043 -0.043,1.254019 -0.043,2.952318 0,1.863114 0.40129,2.336058 0.40845,0.465778 1.1537,0.465778 0.20781,0 0.42995,-0.03583 0.22214,-0.04299 0.55177,-0.128985 z"
         style="fill:#37abc8;fill-opacity:1;stroke-width:0.36689"
         id="path3445" />
      <path
         d="m 356.38832,70.986718 0.15765,-0.673587 q 0.48011,0.222141 1.04621,0.322462 0.57327,0.100322 1.30418,0.100322 0.68792,0 1.08204,-0.329628 0.40129,-0.329628 0.40129,-0.852733 0,-0.429949 -0.20781,-0.759577 -0.20781,-0.329628 -0.95306,-0.623426 -0.74524,-0.300965 -1.383,-0.594763 -0.63776,-0.293799 -0.94589,-0.702251 -0.30096,-0.415617 -0.30096,-0.945888 0,-0.773909 0.61626,-1.225355 0.61626,-0.451447 1.55498,-0.451447 1.02471,0 1.92761,0.265135 l -0.16482,0.601929 q -0.70941,-0.293798 -1.83445,-0.293798 -0.70225,0 -1.11787,0.315296 -0.40845,0.315296 -0.40845,0.773908 0,0.523105 0.43712,0.816904 0.43711,0.293799 1.46899,0.716582 1.03188,0.415618 1.45466,0.838401 0.42995,0.422783 0.42995,1.175195 0,0.895727 -0.60193,1.390169 -0.60193,0.487275 -1.66247,0.487275 -1.19669,0 -2.30023,-0.351125 z"
         style="fill:#37abc8;fill-opacity:1;stroke-width:0.36689"
         id="path3447" />
    </g>
  </g>
  <style
     type="text/css"
     id="style892">
	.st0{fill:#4D4D4D;stroke:#4D4D4D;stroke-width:0.2919;stroke-linejoin:round;stroke-miterlimit:11.3386;}
	.st1{fill:#4D4D4D;stroke:#4D4D4D;stroke-width:0.2915;stroke-linejoin:round;stroke-miterlimit:11.3386;}
	.st2{fill:#37ABC8;}
	.st3{enable-background:new    ;}
	.st4{fill:#4D4D4D;}
</style>
</svg>
